<svg width="208" height="207" viewBox="0 0 208 207" fill="none" xmlns="http://www.w3.org/2000/svg">
<circle cx="103.22" cy="102.691" r="90" fill="#496DA1"/>
<circle cx="104.22" cy="102.691" r="75" fill="#C6E4FC"/>
<path d="M123.749 52.7731C123.749 52.7406 123.749 52.7073 123.753 52.672C123.855 51.7318 124.971 51.4666 124.971 51.4666C124.971 51.4666 125.881 50.9803 127.149 50.7061C127.392 49.5075 128.252 46.6056 131.131 44.1292C131.966 43.411 132.685 42.8127 133.302 42.3141C133.673 41.8868 134.617 40.8219 135.192 40.3685C135.192 40.3685 135.654 40.0374 135.745 40.139C135.794 40.1938 135.711 40.3749 135.6 40.5612C136.372 40.0221 136.655 39.8988 136.655 39.8988C136.655 39.8988 136.564 40.3665 136.034 41.2864C136.015 41.3193 135.997 41.3508 135.979 41.3816C136.138 41.3821 136.285 41.3934 136.342 41.4283C136.474 41.5101 135.938 42.1011 135.628 42.3744C136.484 42.7649 136.148 42.7738 135.739 43.303C135.654 43.4125 135.569 43.5251 135.487 43.6352C135.568 43.6407 135.639 43.6635 135.629 43.7283C135.606 43.87 135.383 43.9517 135.202 44.0215C135.2 44.0243 135.198 44.027 135.196 44.0298C135.22 44.0449 135.316 44.1066 135.398 44.1766C135.457 44.2266 135.28 44.3647 135.087 44.4905C135.288 44.5089 135.544 44.5764 135.479 44.8066C135.376 45.1736 134.7 45.803 134.473 46.044C134.165 46.3715 133.807 46.4862 132.737 47.5858C131.716 48.6358 132.086 50.2079 131.873 50.4843C131.873 50.4843 131.873 50.4843 133.414 50.4406C133.922 50.4262 137.044 49.4473 137.824 49.3274C138.605 49.2076 139.322 49.726 139.033 49.8681C138.743 50.0102 138.131 50.1681 138.131 50.1681C138.388 50.1967 139.171 50.5223 139.447 50.7684C139.724 51.0145 138.77 51.4489 138.77 51.4489C139.135 51.5698 139.079 51.9255 139.079 51.9255C139.079 51.9255 139.079 51.9255 137.991 51.7174C136.903 51.5092 134.44 52.4915 133.652 52.6666C133.126 52.7834 132.229 53.6571 130.552 54.0518C130.419 54.4692 130.243 55.2069 130.034 55.586C129.767 56.0725 129.839 56.2143 129.7 56.7955C129.56 57.3768 129.49 57.9055 129.556 58.0748C129.623 58.2441 129.894 59.0136 129.932 59.1517C129.971 59.2898 129.733 59.2212 129.733 59.2212C129.704 59.3935 129.687 59.6724 129.676 59.77C129.665 59.8676 129.375 59.7768 129.375 59.7768C129.373 59.8966 129.491 60.0713 129.359 60.1314C129.227 60.1915 128.925 60.0289 128.925 60.0289C128.973 60.1293 129.121 60.7764 129.066 60.7811C129.01 60.7858 129.011 60.8705 128.63 60.6961C128.249 60.5216 127.894 60.2441 127.894 60.2441C127.991 60.4272 127.649 60.3644 127.649 60.3644C126.741 59.5057 126.694 58.1142 126.578 57.649C126.479 57.2523 125.975 54.7242 126.549 53.8101C126.455 53.7842 126.365 53.7599 126.277 53.738C126.039 53.6787 125.815 53.6354 125.556 53.6149C125.037 53.574 124.401 53.5293 124.039 53.2857C123.785 53.3501 123.323 53.462 123.102 53.4791C123.102 53.4791 123.3 53.1347 123.472 52.968C123.539 52.904 123.642 52.8365 123.749 52.7731Z" fill="#FFB612"/>
<rect x="103.309" y="150.227" width="15.2908" height="4.46506" rx="2.23253" fill="#496DA1"/>
<rect x="101.348" y="143.902" width="20.7797" height="4.46506" rx="2.23253" fill="#496DA1"/>
<rect x="99.3882" y="137.203" width="28.2291" height="4.46506" rx="2.23253" fill="#496DA1"/>
<rect x="97.0359" y="130.133" width="34.1102" height="4.46506" rx="2.23253" fill="#496DA1"/>
<rect x="96.6436" y="123.062" width="38.815" height="4.46506" rx="2.23253" fill="#496DA1"/>
<rect x="97.428" y="115.992" width="37.2467" height="4.46506" rx="2.23253" fill="#496DA1"/>
<rect x="93.5071" y="108.551" width="44.6961" height="4.46506" rx="2.23253" fill="#496DA1"/>
<rect x="92.7229" y="101.113" width="47.4406" height="4.46506" rx="2.23253" fill="#496DA1"/>
<rect x="62.9255" y="94.0391" width="84.2952" height="4.46506" rx="2.23253" fill="#496DA1"/>
<rect x="58.2207" y="86.9688" width="78.8062" height="4.46506" rx="2.23253" fill="#496DA1"/>
<rect x="58.2207" y="79.8984" width="74.8855" height="4.46506" rx="2.23253" fill="#496DA1"/>
<rect x="60.573" y="72.832" width="67.0441" height="4.46506" rx="2.23253" fill="#496DA1"/>
<rect x="65.6699" y="65.7617" width="58.8106" height="4.46506" rx="2.23253" fill="#496DA1"/>
<rect x="72.3352" y="58.6914" width="24.7005" height="4.46506" rx="2.23253" fill="#496DA1"/>
<rect x="66.4541" y="101.113" width="14.5066" height="4.46506" rx="2.23253" fill="#496DA1"/>
<path d="M100.45 187.141C101.09 186.588 101.594 186.135 101.96 185.781C102.334 185.421 102.644 185.048 102.89 184.661C103.137 184.275 103.26 183.888 103.26 183.501C103.26 183.101 103.164 182.788 102.97 182.561C102.784 182.335 102.487 182.221 102.08 182.221C101.687 182.221 101.38 182.348 101.16 182.601C100.947 182.848 100.834 183.181 100.82 183.601H99.7205C99.7405 182.841 99.9671 182.261 100.4 181.861C100.84 181.455 101.397 181.251 102.07 181.251C102.797 181.251 103.364 181.451 103.77 181.851C104.184 182.251 104.39 182.785 104.39 183.451C104.39 183.931 104.267 184.395 104.02 184.841C103.78 185.281 103.49 185.678 103.15 186.031C102.817 186.378 102.39 186.781 101.87 187.241L101.42 187.641H104.59V188.591H99.7305V187.761L100.45 187.141ZM110.212 182.281L107.432 188.691H106.282L109.092 182.401H105.392V181.431H110.212V182.281Z" fill="#FFB612"/>
<path d="M76.7245 183.767L76.8971 183.336L79.1845 184.252L79.9612 182.314L78.0302 181.54L78.2028 181.11L80.1338 181.883L81.092 179.492L81.6119 179.7L79.5318 184.891L76.7245 183.767Z" fill="#F2F9FF"/>
<path d="M61.4155 174.789C61.1585 174.941 60.8845 175.006 60.5934 174.983C60.298 174.958 59.9998 174.84 59.6989 174.628L60.0352 174.151L60.1596 174.238C60.4911 174.471 60.8201 174.569 61.1467 174.531C61.4733 174.494 61.7841 174.266 62.079 173.847L63.4844 171.853L63.9424 172.175L61.4265 175.745L60.9685 175.423L61.4155 174.789Z" fill="#F2F9FF"/>
<path d="M45.5308 160.801C45.6762 160.675 45.7907 160.583 45.8744 160.525L48.2446 163.267C48.4845 163.039 48.6462 162.794 48.7297 162.531C48.8132 162.269 48.8247 162.009 48.7641 161.752C48.6994 161.497 48.5764 161.265 48.3951 161.056C48.1579 160.781 47.8924 160.609 47.5987 160.538C47.3015 160.463 47.0137 160.493 46.7352 160.628L46.348 160.18C46.7408 159.982 47.1553 159.927 47.5915 160.016C48.0201 160.104 48.4071 160.348 48.7524 160.747C49.021 161.058 49.1931 161.396 49.2685 161.76C49.34 162.128 49.3095 162.493 49.1772 162.853C49.0373 163.213 48.7958 163.541 48.4525 163.838C48.1092 164.134 47.7491 164.325 47.3721 164.41C46.995 164.496 46.6314 164.475 46.2814 164.348C45.9313 164.22 45.6202 163.999 45.3482 163.684C45.0761 163.369 44.9075 163.036 44.8425 162.683C44.774 162.327 44.8028 161.985 44.9289 161.658C45.0475 161.33 45.2481 161.044 45.5308 160.801ZM45.8902 161.241C45.6403 161.449 45.474 161.681 45.391 161.936C45.3046 162.186 45.2936 162.439 45.3583 162.693C45.4229 162.947 45.5459 163.179 45.7273 163.389C45.9994 163.703 46.3323 163.885 46.726 163.932C47.1198 163.98 47.5109 163.857 47.8993 163.565L45.8902 161.241Z" fill="#F2F9FF"/>
<path d="M32.378 143.246C32.5516 143.164 32.6865 143.106 32.7827 143.073L34.3326 146.349C34.6248 146.193 34.8463 146 34.9969 145.77C35.1476 145.539 35.2282 145.292 35.2388 145.028C35.2445 144.765 35.1881 144.509 35.0695 144.258C34.9144 143.931 34.7048 143.693 34.4407 143.547C34.1743 143.395 33.889 143.347 33.5846 143.402L33.3315 142.867C33.763 142.781 34.177 142.84 34.5735 143.042C34.963 143.241 35.2706 143.58 35.4964 144.057C35.672 144.428 35.7474 144.8 35.7225 145.171C35.6928 145.545 35.566 145.888 35.3419 146.2C35.1108 146.509 34.7902 146.761 34.3802 146.954C33.9702 147.148 33.572 147.235 33.1858 147.217C32.7995 147.198 32.4548 147.081 32.1517 146.864C31.8486 146.648 31.608 146.351 31.4301 145.975C31.2522 145.599 31.1791 145.233 31.2108 144.876C31.2403 144.514 31.3595 144.192 31.5686 143.911C31.7705 143.627 32.0403 143.405 32.378 143.246ZM32.6064 143.766C32.3099 143.9 32.0876 144.079 31.9395 144.302C31.7891 144.52 31.711 144.761 31.7052 145.023C31.6995 145.285 31.7559 145.541 31.8745 145.792C32.0524 146.168 32.3247 146.432 32.6913 146.583C33.0579 146.735 33.4676 146.721 33.9202 146.543L32.6064 143.766Z" fill="#F2F9FF"/>
<path d="M25.2587 126.87C24.8166 126.943 24.415 126.917 24.054 126.792C23.6877 126.668 23.3895 126.466 23.1595 126.184C22.9233 125.899 22.7728 125.559 22.7078 125.164C22.6455 124.785 22.6813 124.428 22.8153 124.093C22.9493 123.757 23.152 123.494 23.4233 123.304L20.9601 123.707L20.8692 123.155L26.7115 122.199L26.8024 122.751L25.8392 122.909C26.1609 122.991 26.4437 123.166 26.6878 123.435C26.9267 123.704 27.0794 124.041 27.1461 124.446C27.211 124.841 27.1774 125.211 27.0451 125.557C26.912 125.897 26.6917 126.185 26.3843 126.419C26.076 126.648 25.7008 126.798 25.2587 126.87ZM24.6471 123.104C24.2997 123.161 24.0061 123.282 23.7663 123.467C23.5265 123.652 23.3559 123.88 23.2545 124.15C23.1522 124.416 23.1253 124.696 23.1738 124.99C23.224 125.296 23.3375 125.558 23.5142 125.778C23.6908 125.998 23.9225 126.157 24.209 126.256C24.4894 126.351 24.8086 126.369 25.1665 126.31C25.5191 126.252 25.8184 126.133 26.0643 125.952C26.3041 125.767 26.4751 125.542 26.5774 125.277C26.6744 125.012 26.6978 124.727 26.6476 124.422C26.5991 124.127 26.4839 123.871 26.302 123.652C26.1192 123.428 25.8845 123.266 25.598 123.167C25.3114 123.068 24.9945 123.047 24.6471 123.104Z" fill="#F2F9FF"/>
<path d="M24.4922 102.284C24.4433 102.691 24.3091 103.049 24.0897 103.355C23.8656 103.656 23.5753 103.882 23.2188 104.032C22.8577 104.177 22.4521 104.222 22.002 104.168C21.5519 104.114 21.1715 103.971 20.8608 103.74C20.5448 103.509 20.3164 103.218 20.1758 102.868C20.0299 102.518 19.9813 102.139 20.0303 101.731C20.0792 101.323 20.216 100.966 20.4407 100.66C20.6608 100.348 20.9514 100.12 21.3125 99.9754C21.669 99.8249 22.0723 99.7768 22.5223 99.8309C22.9671 99.8844 23.3475 100.027 23.6636 100.258C23.9796 100.49 24.2102 100.783 24.3555 101.139C24.4956 101.494 24.5411 101.876 24.4922 102.284ZM24.0077 102.225C24.042 101.94 24.0102 101.667 23.9123 101.408C23.8092 101.149 23.6368 100.929 23.3951 100.75C23.1488 100.564 22.835 100.449 22.4537 100.403C22.0725 100.357 21.7432 100.393 21.466 100.51C21.1834 100.626 20.964 100.798 20.8077 101.027C20.6461 101.254 20.5481 101.511 20.5138 101.797C20.4795 102.083 20.5139 102.356 20.6171 102.615C20.7149 102.874 20.8874 103.094 21.1343 103.274C21.3766 103.448 21.6884 103.558 22.0697 103.604C22.4509 103.65 22.7825 103.617 23.0644 103.506C23.3417 103.389 23.5608 103.219 23.7217 102.997C23.8781 102.769 23.9734 102.511 24.0077 102.225Z" fill="#F2F9FF"/>
<path d="M25.0518 75.5404C25.2697 75.0771 25.594 74.7698 26.0247 74.6186C26.4527 74.4603 26.9443 74.5115 27.4995 74.7723L29.8165 75.8609L29.5816 76.3604L27.3225 75.299C26.8929 75.0972 26.5158 75.0468 26.1913 75.1477C25.8668 75.2486 25.6206 75.4777 25.4527 75.8348C25.2779 76.2064 25.2614 76.5611 25.4031 76.8987C25.5449 77.2364 25.8499 77.5152 26.3182 77.7352L28.4614 78.7421L28.2265 79.2417L25.9674 78.1803C25.5378 77.9785 25.1607 77.928 24.8362 78.0289C24.5118 78.1299 24.2644 78.3613 24.0942 78.7233C23.9194 79.0949 23.9029 79.4496 24.0447 79.7872C24.1864 80.1249 24.4914 80.4037 24.9597 80.6237L27.1029 81.6306L26.8646 82.1374L22.9112 80.28L23.1495 79.7732L23.8301 80.093C23.6429 79.8519 23.5411 79.586 23.5245 79.2954C23.5031 79.0025 23.5594 78.7137 23.6933 78.4289C23.8545 78.0863 24.0773 77.8256 24.3617 77.6469C24.6484 77.4634 24.9783 77.3886 25.3514 77.4224C25.0875 77.1688 24.9337 76.8756 24.8899 76.5427C24.8435 76.2027 24.8975 75.8686 25.0518 75.5404Z" fill="#F2F9FF"/>
<path d="M44.8332 44.2471L45.1409 44.5944L43.2945 46.2261L44.6789 47.7891L46.2375 46.4117L46.5452 46.7591L44.9866 48.1364L46.6946 50.0648L46.275 50.4356L42.5672 46.2495L44.8332 44.2471Z" fill="#F2F9FF"/>
<path d="M59.7309 34.6073C59.7098 34.3098 59.7741 34.036 59.924 33.7858C60.0785 33.533 60.3178 33.3195 60.6419 33.1451L60.9192 33.6591L60.7853 33.7311C60.4284 33.9232 60.1938 34.1735 60.0816 34.4822C59.9693 34.7909 60.0348 35.1706 60.2779 35.6212L61.4364 37.7686L60.9433 38.0339L58.8693 34.1897L59.3625 33.9244L59.7309 34.6073Z" fill="#F2F9FF"/>
<path d="M79.3642 26.6547C79.4117 26.8407 79.4428 26.9841 79.4575 27.0849L75.9452 27.978C76.0425 28.2944 76.1899 28.5486 76.3875 28.7405C76.5851 28.9324 76.8127 29.0589 77.0705 29.1199C77.3269 29.1757 77.5895 29.1695 77.8583 29.1012C78.2098 29.0118 78.4827 28.8516 78.6769 28.6206C78.8764 28.3883 78.9779 28.1176 78.9816 27.8085L79.5554 27.6626C79.5575 28.1023 79.4216 28.4973 79.1477 28.8476C78.8776 29.1915 78.4867 29.4284 77.975 29.5585C77.577 29.6597 77.198 29.6625 76.8378 29.567C76.4764 29.4663 76.1636 29.2762 75.8997 28.9966C75.6395 28.7105 75.4534 28.3479 75.3413 27.9086C75.2293 27.4694 75.2189 27.062 75.3103 26.6866C75.4016 26.3112 75.5825 25.9955 75.853 25.7397C76.1235 25.4838 76.4603 25.3046 76.8634 25.2021C77.2666 25.0996 77.6405 25.0981 77.9851 25.1976C78.3349 25.2957 78.6282 25.4743 78.8649 25.7333C79.1055 25.9858 79.2719 26.2929 79.3642 26.6547ZM78.8098 26.7791C78.7345 26.4626 78.6013 26.2103 78.4102 26.0222C78.2243 25.8329 78.0031 25.7103 77.7467 25.6544C77.4903 25.5985 77.2276 25.6048 76.9589 25.6731C76.5557 25.7756 76.2449 25.9922 76.0266 26.3229C75.8082 26.6535 75.7435 27.058 75.8325 27.5361L78.8098 26.7791Z" fill="#F2F9FF"/>
<path d="M100.935 22.7637C100.93 22.9556 100.921 23.1021 100.908 23.2032L97.285 23.115C97.2931 23.446 97.3663 23.7305 97.5046 23.9686C97.643 24.2067 97.8279 24.39 98.0596 24.5183C98.2914 24.6413 98.5459 24.7062 98.8231 24.7129C99.1857 24.7217 99.4917 24.6412 99.7412 24.4712C99.996 24.3013 100.167 24.0681 100.254 23.7714L100.846 23.7858C100.729 24.2098 100.491 24.5534 100.133 24.8168C99.7801 25.075 99.3397 25.1976 98.8118 25.1848C98.4013 25.1748 98.0356 25.0752 97.7147 24.886C97.3939 24.6915 97.1443 24.424 96.9657 24.0836C96.7926 23.7379 96.7115 23.3385 96.7224 22.8853C96.7333 22.4321 96.8334 22.0371 97.0229 21.7003C97.2124 21.3634 97.4719 21.1083 97.8015 20.935C98.1311 20.7616 98.5038 20.68 98.9197 20.6901C99.3356 20.7002 99.696 20.7997 100.001 20.9885C100.311 21.1774 100.545 21.4285 100.703 21.7417C100.866 22.0498 100.943 22.3905 100.935 22.7637ZM100.367 22.7339C100.38 22.4088 100.32 22.1299 100.187 21.8973C100.059 21.6647 99.8795 21.487 99.6477 21.364C99.416 21.241 99.1614 21.1761 98.8842 21.1694C98.4683 21.1592 98.1106 21.2839 97.8109 21.5434C97.5113 21.8028 97.3396 22.1748 97.296 22.6592L100.367 22.7339Z" fill="#F2F9FF"/>
<path d="M118.888 23.7924C119.021 23.3647 119.225 23.0174 119.498 22.7506C119.773 22.4787 120.087 22.3029 120.442 22.2234C120.803 22.1404 121.174 22.1583 121.556 22.2773C121.923 22.3915 122.226 22.5837 122.466 22.8539C122.705 23.1241 122.85 23.4232 122.898 23.7511L123.641 21.3683L124.176 21.5348L122.413 27.1864L121.879 27.0199L122.169 26.0881C121.952 26.3387 121.668 26.513 121.319 26.6109C120.972 26.7038 120.602 26.6892 120.21 26.5671C119.828 26.4481 119.512 26.2519 119.262 25.9786C119.017 25.7068 118.859 25.381 118.788 25.0012C118.721 24.623 118.755 24.2201 118.888 23.7924ZM122.529 24.9349C122.634 24.5989 122.657 24.2821 122.599 23.9847C122.541 23.6873 122.414 23.4326 122.217 23.2206C122.026 23.0102 121.788 22.8605 121.502 22.7717C121.207 22.6797 120.922 22.6634 120.646 22.7228C120.371 22.7823 120.124 22.9178 119.908 23.1296C119.697 23.3378 119.538 23.6151 119.43 23.9613C119.324 24.3024 119.296 24.6235 119.348 24.9244C119.406 25.2218 119.531 25.4757 119.722 25.6861C119.915 25.8915 120.159 26.0401 120.455 26.1321C120.74 26.2209 121.021 26.2331 121.298 26.1686C121.58 26.1057 121.83 25.9683 122.047 25.7566C122.263 25.5448 122.424 25.2709 122.529 24.9349Z" fill="#F2F9FF"/>
<path d="M141.229 34.1366C140.887 33.9102 140.628 33.6302 140.452 33.2967C140.283 32.9617 140.212 32.6012 140.237 32.2152C140.27 31.8277 140.411 31.4449 140.661 31.0669C140.912 30.6889 141.21 30.4127 141.555 30.2384C141.904 30.0596 142.266 29.9857 142.642 30.0168C143.021 30.0434 143.382 30.17 143.724 30.3963C144.067 30.6227 144.325 30.9049 144.498 31.2428C144.678 31.5793 144.752 31.9412 144.719 32.3288C144.694 32.7148 144.556 33.0968 144.306 33.4748C144.059 33.8484 143.761 34.1246 143.412 34.3033C143.063 34.4821 142.697 34.5567 142.314 34.5272C141.934 34.4931 141.572 34.3629 141.229 34.1366ZM141.499 33.7296C141.739 33.8884 141.997 33.982 142.272 34.0105C142.551 34.0346 142.824 33.9788 143.093 33.8432C143.369 33.7061 143.613 33.4775 143.825 33.1573C144.037 32.8371 144.153 32.5269 144.173 32.2266C144.195 31.9219 144.14 31.6486 144.005 31.4066C143.874 31.1602 143.689 30.9576 143.448 30.7989C143.208 30.6401 142.949 30.5487 142.671 30.5246C142.395 30.4961 142.122 30.5519 141.85 30.6919C141.585 30.8304 141.347 31.0598 141.135 31.38C140.923 31.7002 140.804 32.0112 140.777 32.3129C140.757 32.6132 140.811 32.885 140.937 33.1285C141.071 33.3705 141.259 33.5709 141.499 33.7296Z" fill="#F2F9FF"/>
<path d="M164.841 46.584C165.157 46.9865 165.286 47.4139 165.228 47.8662C165.177 48.3195 164.911 48.7354 164.428 49.114L162.414 50.6941L162.073 50.2602L164.037 48.7195C164.41 48.4266 164.625 48.1126 164.68 47.7776C164.736 47.4426 164.641 47.12 164.397 46.8097C164.144 46.4869 163.834 46.313 163.468 46.2881C163.102 46.2631 162.716 46.4103 162.309 46.7296L160.446 48.1912L160.105 47.7573L162.069 46.2167C162.442 45.9237 162.657 45.6097 162.712 45.2747C162.767 44.9397 162.672 44.615 162.424 44.3006C162.17 43.9778 161.861 43.8039 161.495 43.7789C161.129 43.754 160.743 43.9012 160.336 44.2205L158.473 45.6821L158.127 45.2419L161.563 42.5458L161.91 42.986L161.318 43.4502C161.618 43.3913 161.901 43.4197 162.169 43.5353C162.44 43.6477 162.673 43.8275 162.868 44.0749C163.102 44.3725 163.235 44.6884 163.267 45.0225C163.302 45.3608 163.221 45.6889 163.023 46.0068C163.368 45.8851 163.7 45.8793 164.017 45.9896C164.342 46.1008 164.616 46.2989 164.841 46.584Z" fill="#F2F9FF"/>
<path d="M183.63 74.9308L183.185 75.0621L182.486 72.6993L180.484 73.2903L181.074 75.2848L180.629 75.4162L180.039 73.4216L177.568 74.1507L177.409 73.6137L182.773 72.031L183.63 74.9308Z" fill="#F2F9FF"/>
<path d="M186.06 92.4955C186.338 92.6031 186.559 92.7779 186.722 93.02C186.885 93.2674 186.977 93.5748 186.997 93.9423L186.414 93.9743L186.406 93.8226C186.383 93.4178 186.256 93.099 186.024 92.8661C185.792 92.6331 185.421 92.5307 184.91 92.5588L182.473 92.6928L182.443 92.1336L186.804 91.8938L186.835 92.4529L186.06 92.4955Z" fill="#F2F9FF"/>
<path d="M184.923 113.757C184.734 113.721 184.591 113.689 184.494 113.659L185.175 110.1C184.847 110.053 184.554 110.079 184.297 110.176C184.039 110.274 183.828 110.426 183.664 110.634C183.504 110.842 183.398 111.082 183.346 111.355C183.278 111.711 183.307 112.026 183.434 112.3C183.56 112.579 183.762 112.786 184.04 112.921L183.929 113.502C183.53 113.317 183.23 113.027 183.029 112.63C182.832 112.239 182.783 111.785 182.883 111.266C182.96 110.863 183.118 110.518 183.357 110.233C183.602 109.948 183.907 109.746 184.272 109.626C184.641 109.512 185.048 109.497 185.494 109.582C185.939 109.667 186.312 109.831 186.613 110.073C186.915 110.315 187.124 110.613 187.241 110.967C187.358 111.32 187.377 111.701 187.299 112.11C187.221 112.518 187.063 112.858 186.827 113.127C186.59 113.402 186.304 113.592 185.969 113.697C185.638 113.807 185.29 113.827 184.923 113.757ZM185.045 113.202C185.364 113.269 185.649 113.255 185.9 113.162C186.15 113.074 186.355 112.926 186.515 112.718C186.674 112.509 186.78 112.269 186.832 111.996C186.91 111.588 186.846 111.214 186.639 110.876C186.432 110.538 186.093 110.308 185.623 110.185L185.045 113.202Z" fill="#F2F9FF"/>
<path d="M179.297 134.923C179.125 134.837 178.996 134.767 178.91 134.712L180.528 131.47C180.225 131.337 179.937 131.282 179.662 131.306C179.388 131.331 179.143 131.42 178.929 131.576C178.719 131.733 178.552 131.936 178.428 132.184C178.266 132.509 178.209 132.82 178.257 133.118C178.303 133.421 178.441 133.674 178.673 133.879L178.409 134.409C178.074 134.123 177.864 133.762 177.778 133.326C177.694 132.897 177.77 132.446 178.006 131.974C178.189 131.606 178.435 131.318 178.742 131.107C179.055 130.899 179.403 130.787 179.787 130.77C180.174 130.76 180.57 130.856 180.975 131.058C181.381 131.26 181.696 131.518 181.921 131.833C182.146 132.147 182.266 132.49 182.283 132.862C182.3 133.234 182.216 133.606 182.03 133.978C181.844 134.35 181.601 134.635 181.301 134.83C180.998 135.031 180.671 135.137 180.32 135.147C179.972 135.164 179.631 135.089 179.297 134.923ZM179.565 134.422C179.854 134.571 180.132 134.635 180.399 134.614C180.664 134.596 180.901 134.509 181.111 134.351C181.321 134.194 181.487 133.991 181.611 133.743C181.797 133.371 181.836 132.994 181.728 132.612C181.621 132.231 181.357 131.918 180.937 131.673L179.565 134.422Z" fill="#F2F9FF"/>
<path d="M170.809 150.624C171.14 150.927 171.368 151.258 171.493 151.618C171.623 151.983 171.648 152.342 171.569 152.696C171.491 153.058 171.316 153.386 171.046 153.681C170.786 153.964 170.483 154.157 170.137 154.259C169.79 154.361 169.458 154.364 169.14 154.269L170.982 155.953L170.604 156.366L166.235 152.371L166.613 151.958L167.333 152.617C167.199 152.314 167.162 151.983 167.222 151.626C167.285 151.272 167.456 150.944 167.733 150.641C168.004 150.346 168.316 150.144 168.67 150.034C169.02 149.928 169.382 149.923 169.757 150.02C170.128 150.121 170.478 150.322 170.809 150.624ZM168.225 153.432C168.485 153.67 168.762 153.825 169.056 153.899C169.35 153.973 169.635 153.966 169.91 153.878C170.182 153.795 170.419 153.643 170.621 153.423C170.83 153.195 170.966 152.943 171.03 152.669C171.093 152.394 171.075 152.114 170.975 151.828C170.876 151.55 170.693 151.288 170.425 151.043C170.162 150.802 169.883 150.641 169.588 150.559C169.294 150.486 169.011 150.491 168.739 150.574C168.471 150.662 168.232 150.819 168.023 151.047C167.821 151.267 167.691 151.517 167.631 151.795C167.568 152.077 167.586 152.361 167.686 152.647C167.785 152.933 167.965 153.195 168.225 153.432Z" fill="#F2F9FF"/>
<path d="M151.924 166.446C152.274 166.231 152.637 166.115 153.014 166.097C153.389 166.086 153.747 166.174 154.086 166.36C154.424 166.554 154.711 166.843 154.948 167.23C155.186 167.616 155.31 168.003 155.322 168.389C155.337 168.78 155.251 169.14 155.064 169.467C154.879 169.799 154.612 170.072 154.262 170.286C153.912 170.501 153.547 170.615 153.167 170.628C152.786 170.649 152.426 170.563 152.088 170.369C151.749 170.183 151.46 169.897 151.223 169.511C150.989 169.129 150.864 168.742 150.85 168.351C150.835 167.96 150.922 167.597 151.111 167.263C151.302 166.933 151.573 166.66 151.924 166.446ZM152.179 166.862C151.933 167.012 151.739 167.206 151.597 167.443C151.458 167.685 151.392 167.956 151.402 168.257C151.409 168.565 151.514 168.883 151.714 169.21C151.915 169.537 152.148 169.773 152.412 169.918C152.679 170.067 152.95 170.132 153.226 170.113C153.505 170.099 153.768 170.016 154.013 169.866C154.259 169.716 154.451 169.52 154.591 169.278C154.733 169.041 154.798 168.769 154.786 168.464C154.772 168.166 154.665 167.854 154.464 167.526C154.263 167.199 154.032 166.959 153.769 166.807C153.505 166.663 153.236 166.596 152.962 166.608C152.685 166.627 152.424 166.711 152.179 166.862Z" fill="#F2F9FF"/>
<path d="M130.677 182.55C130.178 182.665 129.736 182.601 129.351 182.356C128.961 182.118 128.697 181.7 128.558 181.102L127.979 178.609L128.517 178.484L129.082 180.916C129.189 181.378 129.383 181.705 129.663 181.898C129.943 182.09 130.275 182.142 130.66 182.053C131.06 181.96 131.349 181.753 131.526 181.433C131.704 181.113 131.734 180.701 131.617 180.197L131.081 177.89L131.618 177.766L132.183 180.197C132.291 180.659 132.485 180.986 132.765 181.179C133.045 181.371 133.38 181.422 133.769 181.332C134.17 181.239 134.458 181.033 134.636 180.712C134.813 180.392 134.843 179.98 134.726 179.476L134.19 177.17L134.736 177.043L135.724 181.298L135.179 181.424L135.009 180.692C134.935 180.988 134.789 181.233 134.571 181.425C134.355 181.623 134.093 181.758 133.786 181.829C133.417 181.915 133.075 181.901 132.758 181.788C132.437 181.676 132.174 181.464 131.969 181.15C131.934 181.514 131.799 181.816 131.564 182.057C131.326 182.303 131.03 182.468 130.677 182.55Z" fill="#F2F9FF"/>
</svg>
