<svg width="232" height="232" viewBox="0 0 232 232" fill="none" xmlns="http://www.w3.org/2000/svg">
<path d="M115.658 200.645C68.7141 200.608 30.688 162.523 30.7245 115.579C30.761 68.6345 68.8464 30.6083 115.791 30.6448C162.735 30.6813 200.761 68.7667 200.724 115.711C200.688 162.655 162.603 200.681 115.658 200.645ZM115.771 55.7117C82.6709 55.686 55.8171 82.4981 55.7914 115.598C55.7656 148.698 82.5777 175.552 115.678 175.578C148.778 175.604 175.632 148.792 175.658 115.691C175.683 82.5913 148.871 55.7375 115.771 55.7117Z" fill="#4477AC"/>
<circle cx="115.29" cy="115.207" r="62.5" fill="#F6BF42"/>
<rect x="116.818" y="154.262" width="11.1296" height="3.42728" rx="1.71364" fill="#F2F9FF"/>
<rect x="115.391" y="149.406" width="15.1249" height="3.42728" rx="1.71364" fill="#F2F9FF"/>
<rect x="113.964" y="144.266" width="20.547" height="3.42728" rx="1.71364" fill="#F2F9FF"/>
<rect x="112.252" y="138.836" width="24.8276" height="3.42728" rx="1.71364" fill="#F2F9FF"/>
<rect x="111.967" y="133.41" width="28.2521" height="3.42728" rx="1.71364" fill="#F2F9FF"/>
<rect x="112.538" y="127.984" width="27.1106" height="3.42728" rx="1.71364" fill="#F2F9FF"/>
<rect x="109.684" y="122.27" width="32.5327" height="3.42728" rx="1.71364" fill="#F2F9FF"/>
<rect x="109.113" y="116.562" width="34.5303" height="3.42728" rx="1.71364" fill="#F2F9FF"/>
<rect x="87.4248" y="111.133" width="61.3556" height="3.42728" rx="1.71364" fill="#F2F9FF"/>
<rect x="84" y="105.703" width="57.3603" height="3.42728" rx="1.71364" fill="#F2F9FF"/>
<rect x="84" y="100.277" width="54.5066" height="3.42728" rx="1.71364" fill="#F2F9FF"/>
<rect x="85.7119" y="94.8555" width="48.7991" height="3.42728" rx="1.71364" fill="#F2F9FF"/>
<rect x="89.4219" y="89.4258" width="42.8062" height="3.42728" rx="1.71364" fill="#F2F9FF"/>
<rect x="94.2734" y="84" width="17.9786" height="3.42728" rx="1.71364" fill="#F2F9FF"/>
<rect x="89.9932" y="116.562" width="10.5589" height="3.42728" rx="1.71364" fill="#F2F9FF"/>
<path d="M118.766 78.8746C118.764 78.8489 118.764 78.8226 118.765 78.795C118.808 78.0573 119.614 77.886 119.614 77.886C119.614 77.886 120.263 77.5335 121.18 77.3602C121.317 76.4236 121.847 74.1653 123.868 72.3106C124.454 71.7728 124.958 71.3254 125.392 70.9533C125.649 70.629 126.303 69.8215 126.708 69.4836C126.708 69.4836 127.034 69.2382 127.104 69.3214C127.142 69.3662 127.087 69.5061 127.012 69.6492C127.558 69.2504 127.761 69.1628 127.761 69.1628C127.761 69.1628 127.71 69.5284 127.354 70.2356C127.341 70.2609 127.329 70.2851 127.317 70.3088C127.433 70.3145 127.541 70.3284 127.583 70.3578C127.683 70.4268 127.311 70.8745 127.094 71.0795C127.733 71.4162 127.487 71.4119 127.206 71.8152C127.148 71.8987 127.09 71.9845 127.033 72.0685C127.093 72.0757 127.146 72.096 127.141 72.1467C127.129 72.2577 126.968 72.3145 126.838 72.3634C126.837 72.3656 126.836 72.3676 126.834 72.3697C126.852 72.3825 126.925 72.4344 126.987 72.4923C127.032 72.5337 126.907 72.6365 126.771 72.7292C126.918 72.7505 127.107 72.8124 127.068 72.9916C127.005 73.2775 126.532 73.7507 126.374 73.933C126.16 74.1808 125.902 74.2591 125.158 75.0897C124.448 75.8828 124.771 77.1345 124.624 77.3452C124.624 77.3452 124.624 77.3452 125.749 77.3629C126.119 77.3687 128.368 76.7026 128.934 76.6346C129.5 76.5665 130.042 76.9994 129.835 77.1016C129.629 77.2039 129.186 77.3076 129.186 77.3076C129.375 77.3388 129.958 77.622 130.169 77.8253C130.379 78.0286 129.697 78.3388 129.697 78.3388C129.967 78.4464 129.939 78.725 129.939 78.725C129.939 78.725 129.939 78.725 129.137 78.5241C128.334 78.3232 126.568 79.0142 125.998 79.1256C125.618 79.1998 124.992 79.8582 123.78 80.1126C123.697 80.4371 123.593 81.0127 123.454 81.3044C123.275 81.6789 123.332 81.7931 123.25 82.2465C123.167 82.7 123.134 83.1143 123.189 83.2501C123.243 83.3858 123.467 84.0015 123.5 84.1117C123.532 84.2218 123.356 84.1597 123.356 84.1597C123.341 84.2946 123.338 84.5138 123.333 84.5904C123.329 84.6669 123.114 84.5856 123.114 84.5856C123.116 84.6799 123.209 84.8217 123.114 84.8646C123.019 84.9074 122.793 84.7691 122.793 84.7691C122.831 84.8498 122.962 85.3649 122.922 85.3667C122.881 85.3685 122.884 85.4353 122.6 85.285C122.316 85.1346 122.047 84.9038 122.047 84.9038C122.124 85.0514 121.872 84.9904 121.872 84.9904C121.179 84.2828 121.098 83.1843 120.997 82.8137C120.912 82.4976 120.458 80.4878 120.846 79.7866C120.777 79.763 120.711 79.7409 120.646 79.7207C120.47 79.6658 120.305 79.6241 120.115 79.5992C119.734 79.5494 119.268 79.4927 118.995 79.2883C118.812 79.3306 118.478 79.4031 118.317 79.4091C118.317 79.4091 118.45 79.1444 118.57 79.0188C118.616 78.9706 118.69 78.9209 118.766 78.8746Z" fill="#F2F9FF"/>
<path d="M93.1549 176.439C93.3621 176.524 93.4891 176.72 93.5359 177.028C93.5827 177.335 93.4542 177.859 93.1504 178.599C92.871 179.28 92.4713 180.113 91.9514 181.099C91.4176 182.091 90.7899 183.171 90.0683 184.339C89.7249 184.866 89.3282 185.257 88.8782 185.511C88.4184 185.76 87.8941 185.914 87.3053 185.972C86.7066 186.026 86.0362 186.016 85.294 185.942C84.5519 185.868 83.7981 185.766 83.0327 185.636C82.2533 185.513 81.5326 185.372 80.8704 185.216C80.1943 185.065 79.654 184.907 79.2494 184.741C78.9632 184.623 78.7704 184.475 78.671 184.296C78.5716 184.117 78.5482 183.963 78.6009 183.835C78.6495 183.716 78.7265 183.627 78.8321 183.567C78.9237 183.512 79.0684 183.496 79.2663 183.52C79.4108 183.533 79.7105 183.575 80.1654 183.647C80.6065 183.724 81.1493 183.82 81.7941 183.935C82.4289 184.045 83.1024 184.16 83.8144 184.28C84.5224 184.409 85.2126 184.525 85.8852 184.628C86.6668 184.718 87.2783 184.675 87.7196 184.499C88.147 184.328 88.5214 183.992 88.8429 183.49C88.9193 183.36 89.0319 183.17 89.1808 182.919C88.8599 182.915 88.4659 182.891 87.9988 182.849C87.5317 182.808 87.0568 182.757 86.574 182.697C86.0912 182.637 85.6531 182.567 85.2596 182.486C84.8621 182.415 84.5745 182.343 84.3969 182.27C84.2686 182.218 84.1678 182.084 84.0945 181.87C84.0113 181.651 84.0041 181.458 84.0729 181.29C84.1053 181.211 84.1624 181.142 84.2441 181.084C84.3218 181.035 84.428 181.015 84.5626 181.024C84.6398 181.033 84.8327 181.054 85.1414 181.089C85.4362 181.129 85.7983 181.174 86.2277 181.223C86.6472 181.268 87.0905 181.312 87.5576 181.354C88.0207 181.406 88.462 181.454 88.8815 181.499C89.2912 181.541 89.6355 181.573 89.9146 181.595C90.1584 181.141 90.4152 180.67 90.685 180.182C90.9548 179.693 91.2095 179.226 91.4492 178.783C91.675 178.345 91.8695 177.97 92.0328 177.656C92.192 177.353 92.2898 177.156 92.3262 177.067C92.5531 176.515 92.8293 176.305 93.1549 176.439ZM84.7254 172.405C84.8726 172.492 84.9616 172.624 84.9925 172.803C85.0234 172.982 84.9767 173.178 84.8524 173.389C84.7605 173.545 84.577 173.784 84.3019 174.105C84.0122 174.429 83.6827 174.811 83.3135 175.25C82.9351 175.683 82.5597 176.143 82.1873 176.629C81.8095 177.125 81.4774 177.616 81.191 178.104C81.0505 178.343 80.888 178.483 80.7036 178.523C80.5046 178.567 80.3269 178.543 80.1706 178.451C80.0234 178.364 79.9671 178.207 80.0016 177.98C80.0362 177.753 80.2385 177.377 80.6088 176.852C79.6345 177.542 78.7269 178.023 77.8861 178.296C77.0306 178.573 76.277 178.687 75.6253 178.638C74.9682 178.598 74.4373 178.459 74.0327 178.221C73.766 178.065 73.6053 177.896 73.5506 177.715C73.4813 177.539 73.4845 177.386 73.5601 177.257C73.6628 177.082 73.8175 176.988 74.024 176.973C74.216 176.962 74.5246 176.995 74.9497 177.072C75.4462 177.153 75.9267 177.188 76.3913 177.176C76.8413 177.169 77.3153 177.088 77.8133 176.936C78.3021 176.777 78.8404 176.525 79.4281 176.177C80.0104 175.839 80.663 175.381 81.3858 174.804C82.1087 174.226 82.939 173.508 83.877 172.649C84.0511 172.479 84.2084 172.38 84.349 172.351C84.4804 172.317 84.6059 172.335 84.7254 172.405ZM69.0289 170.746C69.3544 170.364 69.7963 170.068 70.3547 169.858C70.9062 169.655 71.5811 169.579 72.3795 169.63C73.1629 169.681 74.0652 169.897 75.0864 170.278C75.5526 169.666 75.7556 169.125 75.6957 168.653C75.6357 168.181 75.2933 167.678 74.6686 167.145C74.1818 166.729 73.6386 166.413 73.0388 166.196C72.4309 165.971 71.8076 165.839 71.1689 165.799C71.048 166.088 70.8936 166.384 70.7056 166.686C70.5177 166.989 70.2956 167.29 70.0394 167.59C69.4854 168.239 68.9293 168.718 68.3711 169.027C67.8129 169.336 67.2996 169.494 66.831 169.501C66.3543 169.5 65.974 169.379 65.6901 169.137C65.325 168.825 65.1397 168.443 65.1341 167.989C65.1135 167.537 65.3282 167.047 65.7784 166.52C66.2839 165.927 66.9291 165.475 67.714 165.164C68.499 164.852 69.3281 164.669 70.2015 164.615C70.2702 164.239 70.2591 163.907 70.1682 163.619C70.0693 163.324 69.9022 163.077 69.6669 162.876C69.3829 162.633 69.0088 162.447 68.5446 162.318C68.0723 162.181 67.5503 162.086 66.9787 162.033C66.407 161.979 65.8302 161.957 65.2483 161.965C64.6594 161.981 64.114 162.021 63.612 162.083C63.4778 162.109 63.3679 162.106 63.2823 162.075C63.1896 162.052 63.1149 162.016 63.0582 161.968C62.8878 161.822 62.8822 161.656 63.0415 161.47C63.1592 161.332 63.3598 161.237 63.6431 161.184C64.174 161.104 64.7749 161.049 65.4459 161.019C66.1088 160.982 66.7787 160.985 67.4556 161.03C68.1244 161.068 68.7447 161.163 69.3166 161.315C69.8803 161.459 70.3325 161.677 70.6733 161.968C71.0303 162.272 71.2839 162.657 71.4341 163.122C71.5762 163.58 71.6009 164.085 71.5084 164.637C72.2929 164.703 73.0517 164.874 73.7846 165.149C74.5175 165.424 75.1558 165.794 75.6994 166.258C76.5918 167.02 77.0412 167.824 77.0476 168.671C77.054 169.518 76.7005 170.359 75.9873 171.195C75.4333 171.844 74.835 172.364 74.1926 172.755C73.5351 173.147 72.8872 173.422 72.2489 173.578C71.6036 173.743 71.0096 173.789 70.4668 173.719C69.9241 173.648 69.4864 173.471 69.1537 173.187C68.7237 172.82 68.5141 172.417 68.5247 171.977C68.5354 171.537 68.7035 171.127 69.0289 170.746ZM74.3332 171.087C73.7544 170.943 73.1619 170.865 72.5556 170.853C71.9343 170.841 71.3791 170.9 70.8899 171.03C70.3927 171.152 70.0333 171.343 69.8117 171.603C69.7147 171.717 69.6663 171.823 69.6665 171.921C69.6598 172.027 69.7214 172.136 69.8512 172.247C70.0459 172.413 70.3249 172.497 70.6882 172.498C71.0446 172.508 71.4413 172.454 71.8784 172.336C72.3085 172.227 72.7421 172.064 73.1789 171.848C73.6077 171.625 73.9925 171.371 74.3332 171.087ZM69.7199 165.845C69.0687 165.934 68.4622 166.111 67.9005 166.375C67.3388 166.638 66.8779 166.981 66.5178 167.403C66.2131 167.76 66.15 168.015 66.3284 168.167C66.5799 168.382 66.9508 168.383 67.4409 168.17C67.9159 167.958 68.3959 167.569 68.8806 167.001C69.2199 166.603 69.4997 166.218 69.7199 165.845ZM57.0879 159C56.3655 159.205 55.6364 159.435 54.9004 159.691C54.1578 159.939 53.4192 160.218 52.6847 160.527C52.4777 160.609 52.2843 160.64 52.1045 160.619C51.9097 160.596 51.756 160.514 51.6434 160.372C51.564 160.271 51.5354 160.158 51.5577 160.031C51.5734 159.897 51.644 159.779 51.7694 159.68C51.9283 159.554 52.254 159.399 52.7464 159.213C53.2321 159.019 53.8489 158.775 54.5968 158.483C55.338 158.182 56.1745 157.812 57.1063 157.374C58.0231 156.934 59.0037 156.402 60.0481 155.78C61.0858 155.149 62.1399 154.409 63.2105 153.562C63.4446 153.377 63.6767 153.274 63.9067 153.256C64.1451 153.23 64.3205 153.289 64.4331 153.431C64.4993 153.514 64.5412 153.61 64.559 153.719C64.5768 153.827 64.5294 153.973 64.4168 154.158C64.306 154.327 64.1008 154.558 63.8011 154.849C63.493 155.148 63.0546 155.522 62.4859 155.972C62.051 156.316 61.5586 156.665 61.0087 157.019C62.0074 156.854 62.9448 156.792 63.8209 156.833C64.6819 156.873 65.4159 156.992 66.023 157.192C66.6234 157.383 67.0394 157.625 67.2711 157.918C67.5558 158.278 67.6663 158.667 67.6025 159.084C67.5404 159.487 67.2752 159.874 66.8069 160.245C66.3971 160.569 65.8986 160.807 65.3114 160.959C64.7243 161.111 64.0958 161.194 63.4261 161.207C62.7479 161.227 62.0684 161.193 61.3875 161.106C60.7066 161.02 60.0717 160.896 59.4828 160.737C58.879 160.575 58.3652 160.39 57.9414 160.182C57.5093 159.98 57.2105 159.774 57.045 159.565C56.9788 159.481 56.9485 159.383 56.9541 159.27C56.9597 159.156 57.0043 159.067 57.0879 159ZM57.6059 158.856C57.7108 158.868 57.8256 158.893 57.9504 158.93C58.0751 158.967 58.2107 159.009 58.357 159.057C58.9076 159.22 59.5298 159.387 60.2236 159.559C60.9024 159.729 61.6014 159.856 62.3206 159.939C63.0248 160.021 63.6937 160.015 64.3272 159.922C64.9607 159.829 65.5075 159.6 65.9675 159.236C66.1682 159.077 66.1891 158.897 66.0302 158.696C65.8117 158.42 65.4438 158.222 64.9263 158.101C64.3939 157.978 63.7544 157.927 63.008 157.946C62.2532 157.972 61.419 158.061 60.5053 158.213C59.5833 158.372 58.6168 158.586 57.6059 158.856ZM60.1644 148.926C60.4806 149.47 60.5224 150.02 60.2897 150.575C60.057 151.129 59.6087 151.6 58.9447 151.986C58.7049 152.125 58.4326 152.24 58.1276 152.331C57.8081 152.418 57.5055 152.471 57.2198 152.489C57.1928 152.591 57.1347 152.692 57.0454 152.794C56.947 152.9 56.8102 153.004 56.635 153.106C56.0909 153.423 55.5393 153.62 54.9802 153.698C54.4211 153.776 53.8872 153.76 53.3783 153.648C52.8602 153.542 52.4017 153.359 52.0028 153.097C51.5986 152.826 51.2839 152.497 51.0588 152.11C50.6889 151.473 50.6192 150.823 50.8498 150.158C51.0712 149.499 51.6475 148.899 52.5789 148.357C53.0677 148.073 53.6086 147.858 54.2015 147.71C54.7891 147.554 55.3905 147.463 56.0055 147.439C56.6152 147.405 57.1983 147.443 57.7548 147.551C58.3059 147.65 58.7967 147.815 59.2271 148.046C59.6429 148.273 59.9553 148.567 60.1644 148.926ZM56.2188 151.849C56.2604 151.751 56.3412 151.667 56.461 151.597C56.5994 151.517 56.7538 151.464 56.9243 151.439C57.0894 151.405 57.3079 151.346 57.5799 151.262C57.8518 151.178 58.2091 151.007 58.6517 150.75C59.0944 150.492 59.2138 150.188 59.0101 149.838C58.785 149.451 58.4238 149.179 57.9265 149.024C57.4199 148.875 56.8472 148.813 56.2084 148.839C55.5695 148.864 54.9333 148.969 54.2995 149.152C53.6512 149.332 53.0781 149.566 52.5801 149.856C52.2574 150.043 52.0663 150.235 52.0069 150.43C51.9382 150.63 51.995 150.887 52.1773 151.2C52.3649 151.523 52.6712 151.795 53.0963 152.017C53.5067 152.235 53.9634 152.352 54.4663 152.368C54.9692 152.384 55.4511 152.258 55.9122 151.99C56.0137 151.931 56.1159 151.884 56.2188 151.849ZM52.5474 131.974C52.7118 131.927 52.8657 131.946 53.009 132.031C53.1523 132.116 53.2525 132.239 53.3095 132.4C53.3737 132.581 53.3668 132.753 53.2889 132.916C53.2111 133.08 53.0465 133.206 52.7951 133.295C52.1416 133.527 51.4222 133.748 50.6367 133.958C49.8412 134.172 49.0504 134.368 48.2643 134.545C47.4682 134.725 46.7323 134.884 46.0568 135.022C46.647 135.186 47.2981 135.363 48.0101 135.552C48.7186 135.73 49.4257 135.921 50.1312 136.124C50.8368 136.326 51.4936 136.535 52.1015 136.749C52.6994 136.967 53.1994 137.181 53.6015 137.389C53.9934 137.601 54.2251 137.807 54.2964 138.008C54.4282 138.38 54.3965 138.754 54.2012 139.128C53.9958 139.507 53.667 139.776 53.2145 139.937C53.0336 140.001 52.7801 140.068 52.4542 140.138C52.1183 140.212 51.7654 140.286 51.3957 140.361C51.026 140.435 50.6833 140.506 50.3674 140.573C50.0415 140.643 49.8031 140.705 49.6523 140.758C49.5116 140.808 49.3963 140.866 49.3064 140.932C49.203 140.991 49.1655 141.061 49.194 141.141C49.2368 141.262 49.4313 141.38 49.7776 141.495C50.1139 141.613 50.5344 141.73 51.0393 141.845C51.5406 141.95 52.0706 142.057 52.6293 142.164C53.1844 142.262 53.7091 142.353 54.2032 142.438C54.6874 142.527 55.0735 142.61 55.3618 142.689C55.6293 142.742 55.833 142.805 55.9727 142.88C56.1124 142.955 56.2108 143.073 56.2679 143.234C56.3356 143.425 56.2974 143.636 56.1534 143.869C56.0058 144.091 55.7862 144.253 55.4946 144.357C55.3237 144.417 55.0466 144.482 54.6633 144.55C54.2699 144.621 53.836 144.69 53.3616 144.756C52.8836 144.813 52.4174 144.871 51.9631 144.93C51.4952 144.982 51.0979 145.027 50.7714 145.064C50.401 145.104 50.1342 145.086 49.9707 145.008C49.8073 144.93 49.7007 144.821 49.6508 144.68C49.583 144.489 49.6 144.313 49.7015 144.153C49.7894 143.986 49.9741 143.852 50.2556 143.753C50.3059 143.735 50.4523 143.717 50.6949 143.699C50.9274 143.684 51.2155 143.667 51.5592 143.647C51.8894 143.62 52.2381 143.599 52.6055 143.582C52.9694 143.554 53.3028 143.521 53.6056 143.482C53.1552 143.392 52.6711 143.304 52.1533 143.216C51.6319 143.118 51.1155 143.018 50.6041 142.916C50.0827 142.818 49.6015 142.706 49.1605 142.579C48.7095 142.456 48.3357 142.311 48.039 142.145C47.7423 141.979 47.5548 141.785 47.4764 141.564C47.3837 141.302 47.3786 141.032 47.461 140.754C47.5399 140.466 47.6901 140.203 47.9117 139.966C48.1332 139.729 48.4099 139.552 48.7416 139.434C48.9728 139.352 49.3138 139.277 49.7646 139.207C50.2053 139.142 50.683 139.069 51.1976 138.988C51.7087 138.897 52.184 138.785 52.6234 138.652C52.724 138.617 52.7635 138.569 52.7421 138.508C52.7243 138.458 52.6677 138.41 52.5724 138.365C52.1473 138.187 51.6462 138.003 51.0691 137.811C50.4819 137.623 49.8677 137.439 49.2267 137.259C48.5821 137.069 47.9493 136.88 47.3284 136.693C46.6974 136.509 46.1255 136.333 45.6129 136.164C45.0867 135.988 44.6601 135.823 44.3333 135.667C44.0029 135.501 43.8128 135.348 43.7629 135.207C43.6559 134.905 43.6594 134.644 43.7733 134.422C43.8872 134.201 44.1452 134.019 44.5473 133.876C44.869 133.762 45.2952 133.64 45.8257 133.508C46.3527 133.366 46.9303 133.224 47.5584 133.08C48.183 132.927 48.8162 132.782 49.458 132.645C50.0862 132.501 50.6741 132.372 51.2218 132.257C51.7595 132.146 52.2014 132.051 52.5474 131.974ZM51.018 118.807C51.0211 119.031 50.8904 119.224 50.6259 119.388C50.3615 119.552 49.8293 119.639 49.0294 119.65C48.2934 119.66 47.3701 119.619 46.2594 119.528C45.1379 119.426 43.8984 119.272 42.5408 119.067C41.9205 118.958 41.4056 118.747 40.9959 118.432C40.5861 118.107 40.2389 117.685 39.9544 117.166C39.6698 116.637 39.4159 116.016 39.1928 115.305C38.9697 114.593 38.7676 113.86 38.5866 113.105C38.3947 112.339 38.2408 111.621 38.125 110.951C37.9983 110.27 37.9319 109.711 37.9259 109.273C37.9217 108.964 37.9825 108.729 38.1082 108.567C38.234 108.405 38.3663 108.323 38.5049 108.321C38.6329 108.32 38.7454 108.355 38.8424 108.429C38.9286 108.492 38.9997 108.619 39.0557 108.81C39.1002 108.948 39.1789 109.24 39.2917 109.687C39.3937 110.123 39.5184 110.66 39.6659 111.298C39.8132 111.925 39.9716 112.59 40.1413 113.291C40.3003 113.993 40.4643 114.674 40.6333 115.333C40.857 116.087 41.1366 116.633 41.4719 116.97C41.7964 117.296 42.2527 117.508 42.8408 117.607C42.9904 117.626 43.2094 117.655 43.498 117.694C43.3766 117.397 43.2435 117.025 43.0987 116.579C42.9539 116.133 42.8143 115.676 42.6798 115.209C42.5454 114.741 42.4381 114.311 42.3581 113.917C42.2673 113.524 42.2206 113.231 42.218 113.039C42.2161 112.9 42.2995 112.755 42.4681 112.603C42.6365 112.441 42.8114 112.359 42.9927 112.356C43.078 112.355 43.1637 112.381 43.2498 112.433C43.3252 112.485 43.3851 112.575 43.4295 112.702C43.4519 112.777 43.5077 112.963 43.5972 113.26C43.6758 113.547 43.7766 113.898 43.8996 114.312C44.0225 114.716 44.1564 115.141 44.3012 115.587C44.4353 116.033 44.5638 116.458 44.6867 116.861C44.8094 117.254 44.9153 117.584 45.0043 117.849C45.517 117.895 46.0511 117.947 46.6065 118.003C47.162 118.06 47.6908 118.111 48.1928 118.157C48.684 118.193 49.1058 118.225 49.4582 118.252C49.8 118.279 50.0188 118.292 50.1148 118.291C50.7121 118.283 51.0132 118.455 51.018 118.807ZM51.4152 109.47C51.394 109.639 51.3072 109.773 51.1551 109.872C51.0029 109.972 50.8051 110.006 50.5616 109.975C50.3817 109.953 50.09 109.879 49.6865 109.753C49.2738 109.615 48.7929 109.463 48.2439 109.298C47.6963 109.121 47.1255 108.958 46.5315 108.809C45.9269 108.658 45.3442 108.547 44.7832 108.477C44.508 108.442 44.3156 108.348 44.2058 108.195C44.0868 108.029 44.0386 107.856 44.0612 107.677C44.0824 107.507 44.2042 107.393 44.4265 107.335C44.6488 107.277 45.0741 107.314 45.7025 107.447C44.684 106.825 43.8832 106.181 43.3 105.517C42.7075 104.841 42.3049 104.194 42.0922 103.576C41.8689 102.956 41.7864 102.414 41.8448 101.948C41.8833 101.641 41.9747 101.427 42.1189 101.305C42.2539 101.172 42.3955 101.114 42.5437 101.133C42.7448 101.158 42.8929 101.263 42.9881 101.447C43.074 101.619 43.1659 101.915 43.2636 102.336C43.3851 102.824 43.543 103.279 43.7373 103.701C43.9224 104.112 44.1835 104.515 44.5207 104.912C44.8593 105.299 45.3043 105.693 45.8559 106.096C46.3968 106.497 47.0754 106.915 47.8915 107.351C48.7076 107.786 49.6957 108.265 50.8558 108.787C51.0807 108.879 51.2341 108.985 51.3161 109.102C51.3994 109.21 51.4325 109.332 51.4152 109.47ZM46.7533 94.3847C47.2319 94.5339 47.6779 94.8238 48.0911 95.2543C48.4942 95.6816 48.8296 96.2722 49.0974 97.0261C49.3581 97.7666 49.5143 98.6812 49.5659 99.7699C50.3118 99.9578 50.8899 99.9313 51.3002 99.6905C51.7105 99.4497 52.0378 98.9372 52.2823 98.1531C52.4728 97.5421 52.55 96.9182 52.5139 96.2812C52.481 95.6341 52.3575 95.009 52.1433 94.4059C51.8296 94.4087 51.4968 94.3831 51.1448 94.3293C50.7929 94.2754 50.4286 94.1898 50.0518 94.0723C49.2371 93.8183 48.578 93.4955 48.0744 93.1039C47.5708 92.7122 47.2237 92.3024 47.0332 91.8742C46.8458 91.4359 46.8077 91.0386 46.9188 90.6822C47.0617 90.2239 47.3405 89.903 47.7553 89.7195C48.163 89.5226 48.6978 89.5273 49.3597 89.7337C50.1031 89.9655 50.7725 90.3808 51.3678 90.9799C51.9632 91.5789 52.4575 92.2693 52.8506 93.051C53.2234 92.9662 53.5243 92.8253 53.7532 92.6286C53.9854 92.4216 54.1475 92.1705 54.2395 91.8751C54.3506 91.5187 54.3745 91.1016 54.3112 90.6238C54.2511 90.1358 54.133 89.6185 53.957 89.072C53.781 88.5255 53.5748 87.9864 53.3384 87.4546C53.0918 86.9196 52.8411 86.4336 52.5862 85.9967C52.5098 85.8834 52.469 85.7813 52.4639 85.6904C52.4485 85.5962 52.452 85.5135 52.4742 85.4422C52.5409 85.2283 52.6913 85.1579 52.9255 85.2309C53.0986 85.2849 53.2651 85.4318 53.425 85.6716C53.7072 86.1283 53.9942 86.6591 54.2861 87.264C54.5811 87.8588 54.8411 88.4762 55.0662 89.1161C55.2944 89.746 55.4513 90.3535 55.537 90.9389C55.6258 91.5141 55.6036 92.0155 55.4702 92.4432C55.3305 92.8913 55.0766 93.2758 54.7084 93.5967C54.3433 93.9075 53.8888 94.1289 53.3449 94.261C53.5923 95.0085 53.7337 95.7733 53.7692 96.5553C53.8048 97.3373 53.7162 98.0694 53.5035 98.7517C53.1542 99.8719 52.5916 100.601 51.8155 100.941C51.0394 101.28 50.1269 101.286 49.0781 100.959C48.2634 100.705 47.5498 100.359 46.9374 99.9225C46.318 99.4724 45.8108 98.9847 45.4159 98.4593C45.0109 97.9308 44.7341 97.4032 44.5854 96.8764C44.4368 96.3496 44.4276 95.8775 44.5578 95.46C44.726 94.9203 45.0144 94.5688 45.4228 94.4057C45.8312 94.2425 46.2747 94.2355 46.7533 94.3847ZM48.5263 99.3955C48.4304 98.807 48.2691 98.2315 48.0421 97.6692C47.8082 97.0935 47.5356 96.6062 47.2241 96.2075C46.9159 95.7985 46.5988 95.5432 46.273 95.4416C46.1304 95.3972 46.0139 95.3944 45.9236 95.4333C45.8231 95.469 45.7474 95.5683 45.6966 95.7312C45.6205 95.9756 45.6531 96.2651 45.7946 96.5998C45.9259 96.9312 46.1316 97.2747 46.4119 97.6302C46.6819 97.9825 47.0022 98.317 47.3727 98.6336C47.7465 98.9401 48.131 99.1941 48.5263 99.3955ZM51.5306 93.092C51.1923 92.5285 50.7914 92.0404 50.3279 91.6277C49.8644 91.215 49.3679 90.9262 48.8383 90.7611C48.3903 90.6214 48.1313 90.6635 48.0615 90.8876C47.963 91.2033 48.108 91.5445 48.4964 91.9114C48.8778 92.265 49.4249 92.5529 50.1378 92.7751C50.6368 92.9307 51.101 93.0363 51.5306 93.092ZM52.875 78.779C52.4039 78.1943 51.9065 77.6135 51.3827 77.0366C50.864 76.4503 50.3185 75.8797 49.7462 75.3249C49.5895 75.1667 49.4856 75.0007 49.4344 74.8271C49.379 74.639 49.3947 74.4653 49.4814 74.3061C49.5427 74.1937 49.6359 74.123 49.761 74.094C49.8912 74.0556 50.0266 74.0747 50.1671 74.1512C50.345 74.2482 50.6159 74.4869 50.9795 74.8672C51.3483 75.2382 51.8137 75.7105 52.3758 76.284C52.9431 76.8482 53.6107 77.4732 54.3789 78.159C55.1428 78.8303 56.0157 79.5246 56.9976 80.2418C57.9845 80.9496 59.0775 81.6302 60.2764 82.2834C60.5386 82.4263 60.7234 82.5999 60.8308 82.8042C60.9475 83.0135 60.9625 83.1978 60.8757 83.3571C60.8247 83.4507 60.7528 83.527 60.66 83.5857C60.5673 83.6445 60.414 83.6582 60.2003 83.6268C60.0011 83.5911 59.7087 83.4925 59.323 83.3309C58.9279 83.1643 58.4119 82.9074 57.775 82.5604C57.2879 82.295 56.774 81.9785 56.2333 81.611C56.7759 82.4655 57.1998 83.3038 57.5049 84.126C57.8058 84.9337 57.9832 85.656 58.0371 86.2927C58.0961 86.9201 58.0363 87.3977 57.8577 87.7255C57.6382 88.1283 57.3238 88.3821 56.9144 88.487C56.5194 88.5876 56.0597 88.4951 55.5352 88.2092C55.0762 87.9592 54.6619 87.5937 54.2922 87.1129C53.9225 86.6321 53.6005 86.0861 53.3261 85.475C53.0424 84.8588 52.8071 84.2204 52.6204 83.5599C52.4337 82.8994 52.2985 82.267 52.2148 81.6626C52.1268 81.0437 52.0959 80.4985 52.1221 80.0269C52.1389 79.5501 52.2111 79.1947 52.3387 78.9605C52.3898 78.8668 52.4685 78.8004 52.5749 78.7612C52.6813 78.722 52.7813 78.7279 52.875 78.779ZM53.211 79.1989C53.2408 79.3002 53.263 79.4155 53.2775 79.5449C53.2921 79.6743 53.3062 79.8156 53.3199 79.9689C53.3857 80.5392 53.4753 81.1772 53.5889 81.8829C53.6981 82.5741 53.8551 83.267 54.0597 83.9615C54.26 84.6416 54.5272 85.2549 54.8611 85.8012C55.1951 86.3476 55.6196 86.7612 56.1348 87.0419C56.3596 87.1643 56.5332 87.1132 56.6557 86.8884C56.8241 86.5793 56.8627 86.163 56.7714 85.6395C56.6758 85.1015 56.4729 84.4929 56.1627 83.8137C55.8432 83.1294 55.4347 82.3967 54.9372 81.6154C54.4303 80.829 53.8549 80.0235 53.211 79.1989ZM63.3519 77.6679C62.9745 78.1715 62.485 78.4245 61.8834 78.427C61.2818 78.4294 60.6737 78.2003 60.0591 77.7398C59.8372 77.5735 59.6248 77.3678 59.422 77.1225C59.2171 76.8623 59.0506 76.6043 58.9225 76.3484C58.8179 76.3633 58.7017 76.3495 58.5736 76.3069C58.4371 76.2579 58.2877 76.1727 58.1255 76.0511C57.6219 75.6738 57.2249 75.243 56.9345 74.7589C56.6441 74.2748 56.4508 73.7767 56.3546 73.2648C56.2498 72.7464 56.24 72.2525 56.3251 71.7832C56.4166 71.3053 56.5967 70.887 56.8653 70.5285C57.3066 69.9395 57.8782 69.6214 58.5801 69.5741C59.2734 69.5205 60.0511 69.8166 60.9133 70.4626C61.3657 70.8016 61.7755 71.2153 62.1427 71.7036C62.5162 72.1835 62.8343 72.7017 63.097 73.2584C63.3661 73.8065 63.5594 74.3579 63.677 74.9125C63.801 75.4586 63.8407 75.9748 63.7961 76.4613C63.7494 76.9327 63.6013 77.3349 63.3519 77.6679ZM59.1203 75.1771C59.227 75.177 59.3358 75.2186 59.4468 75.3017C59.5748 75.3976 59.6837 75.5192 59.7733 75.6664C59.8694 75.805 60.0092 75.983 60.1928 76.2006C60.3764 76.4181 60.673 76.6803 61.0828 76.9873C61.4925 77.2943 61.8189 77.2857 62.0619 76.9613C62.3306 76.6027 62.4392 76.1643 62.3877 75.6459C62.3277 75.1211 62.1611 74.5698 61.8877 73.9918C61.6144 73.4137 61.2696 72.8688 60.8534 72.357C60.435 71.8303 59.9953 71.3942 59.5344 71.0489C59.2356 70.825 58.9849 70.7238 58.7822 70.7452C58.571 70.7603 58.3567 70.9129 58.1392 71.2031C57.9154 71.5019 57.7844 71.8902 57.7462 72.3681C57.7059 72.8311 57.7765 73.2972 57.958 73.7664C58.1396 74.2357 58.4438 74.6302 58.8706 74.95C58.9645 75.0203 59.0477 75.096 59.1203 75.1771ZM75.9486 63.9994C76.0565 64.132 76.0997 64.2809 76.078 64.4461C76.0563 64.6113 75.9827 64.7518 75.8573 64.8676C75.7163 64.9978 75.5553 65.0593 75.3744 65.0521C75.1936 65.0449 75.0127 64.9433 74.8318 64.7474C74.3615 64.238 73.8748 63.6637 73.3719 63.0247C72.8618 62.3778 72.3707 61.7279 71.8985 61.075C71.4191 60.4143 70.9832 59.8005 70.5906 59.2338C70.6721 59.841 70.7662 60.509 70.873 61.2379C70.9876 61.9596 71.0908 62.6846 71.1825 63.4129C71.2742 64.1412 71.3412 64.827 71.3835 65.4703C71.4185 66.1058 71.4195 66.6493 71.3864 67.1009C71.346 67.5447 71.2475 67.8389 71.0907 67.9836C70.8007 68.2513 70.445 68.3692 70.0236 68.3373C69.5949 68.2976 69.2178 68.1014 68.8922 67.7487C68.7619 67.6076 68.6003 67.4011 68.4073 67.1292C68.2072 66.8495 68 66.5544 67.786 66.2439C67.5719 65.9334 67.372 65.6462 67.1863 65.3821C66.9933 65.1102 66.8426 64.9155 66.734 64.7979C66.6327 64.6882 66.5341 64.605 66.4383 64.5484C66.343 64.4766 66.264 64.4697 66.2013 64.5276C66.1073 64.6144 66.0756 64.8396 66.1064 65.2032C66.13 65.5589 66.1882 65.9915 66.2811 66.5009C66.3818 67.0031 66.4928 67.5322 66.6141 68.0881C66.7432 68.6367 66.8659 69.1549 66.9823 69.6426C67.0915 70.1226 67.1666 70.5105 67.2076 70.8066C67.2649 71.073 67.2866 71.2853 67.2728 71.4432C67.2589 71.6012 67.1893 71.7381 67.0639 71.8538C66.915 71.9913 66.7055 72.0396 66.4354 71.9986C66.1731 71.9504 65.9371 71.8126 65.7272 71.5854C65.6042 71.4521 65.436 71.2227 65.2225 70.8972C65.0018 70.5638 64.7676 70.1921 64.5197 69.7822C64.2797 69.365 64.043 68.9592 63.8097 68.565C63.5769 68.1556 63.3794 67.808 63.2172 67.5223C63.0339 67.1979 62.9458 66.9453 62.953 66.7644C62.9603 66.5836 63.0187 66.4425 63.1284 66.3412C63.2773 66.2037 63.4456 66.15 63.6331 66.1801C63.8212 66.1952 64.0165 66.3124 64.2191 66.5319C64.2553 66.5711 64.3295 66.6986 64.4417 66.9144C64.5466 67.1224 64.6759 67.3804 64.8297 67.6885C64.9841 67.9815 65.1415 68.2935 65.3019 68.6245C65.4701 68.9482 65.632 69.2415 65.7876 69.5044C65.6923 69.0552 65.5831 68.5753 65.4601 68.0647C65.3449 67.5468 65.2333 67.0328 65.1253 66.5227C65.0101 66.0049 64.9238 65.5183 64.8665 65.0631C64.802 64.6001 64.7877 64.1994 64.8239 63.8612C64.86 63.523 64.9643 63.2743 65.1367 63.1151C65.3405 62.9269 65.5865 62.816 65.8747 62.7822C66.1707 62.7412 66.4712 62.7758 66.7763 62.8861C67.0814 62.9964 67.3534 63.1809 67.5921 63.4395C67.7586 63.6197 67.9624 63.9034 68.2036 64.2904C68.4375 64.6696 68.6929 65.0799 68.9697 65.5212C69.2543 65.9553 69.5444 66.3481 69.8398 66.6995C69.9122 66.7779 69.9719 66.7954 70.0189 66.752C70.0581 66.7158 70.0798 66.6449 70.084 66.5394C70.0797 66.0788 70.0519 65.5455 70.0006 64.9396C69.9421 64.3258 69.8694 63.6889 69.7825 63.0287C69.7034 62.3613 69.6277 61.7053 69.5553 61.0608C69.4756 60.4084 69.4126 59.8134 69.3661 59.2756C69.3202 58.7227 69.3045 58.2654 69.3189 57.9036C69.3412 57.5347 69.4072 57.2995 69.5169 57.1982C69.752 56.9811 69.9938 56.8813 70.2422 56.8988C70.4906 56.9162 70.7595 57.0817 71.0489 57.3952C71.2805 57.646 71.5612 57.9893 71.891 58.4252C72.2287 58.8538 72.5872 59.3286 72.9665 59.8495C73.3536 60.3631 73.7365 60.8879 74.1152 61.4239C74.4945 61.9448 74.8448 62.4343 75.1662 62.8925C75.4804 63.3428 75.7412 63.7118 75.9486 63.9994ZM87.4565 57.4159C87.2519 57.5072 87.0223 57.4638 86.7674 57.2855C86.5126 57.1073 86.2221 56.6529 85.8959 55.9224C85.5958 55.2504 85.2683 54.3861 84.9134 53.3297C84.5639 52.2592 84.2153 51.0598 83.8675 49.7315C83.7224 49.1187 83.7133 48.5621 83.8402 48.0615C83.9769 47.5566 84.2273 47.0709 84.5915 46.6046C84.9654 46.1339 85.4352 45.6555 86.0007 45.1693C86.5663 44.6831 87.1601 44.2077 87.782 43.7431C88.4094 43.2644 89.0081 42.8393 89.5782 42.4679C90.1537 42.0825 90.6411 41.8006 91.0405 41.6223C91.3229 41.4961 91.5633 41.4589 91.7616 41.5105C91.9599 41.5622 92.0873 41.6513 92.1438 41.7779C92.196 41.8948 92.2076 42.0123 92.1785 42.1304C92.1549 42.2344 92.0663 42.3499 91.9127 42.4769C91.8035 42.5724 91.5661 42.7602 91.2005 43.0402C90.8403 43.3062 90.3963 43.633 89.8684 44.0205C89.3503 44.4037 88.8025 44.8119 88.2249 45.245C87.643 45.6684 87.0827 46.088 86.544 46.5037C85.9395 47.0073 85.5488 47.4796 85.3719 47.9207C85.2005 48.3478 85.1856 48.8509 85.3274 49.43C85.3689 49.5751 85.4288 49.7878 85.5073 50.0682C85.7321 49.8393 86.0208 49.5702 86.3734 49.2609C86.7259 48.9516 87.0903 48.6429 87.4667 48.3346C87.8431 48.0264 88.1962 47.7577 88.5261 47.5286C88.8517 47.2898 89.1022 47.1312 89.2775 47.053C89.4041 46.9964 89.5704 47.0156 89.7763 47.1106C89.992 47.2012 90.1368 47.3293 90.2108 47.4948C90.2455 47.5728 90.256 47.6616 90.2421 47.7612C90.2238 47.8511 90.165 47.9417 90.0655 48.0328C90.006 48.0827 89.8573 48.2076 89.6194 48.4072C89.3868 48.5928 89.1046 48.824 88.7726 49.1008C88.4503 49.3732 88.1129 49.664 87.7603 49.9733C87.4035 50.2728 87.0639 50.5588 86.7416 50.8312C86.4291 51.0993 86.1685 51.3266 85.9598 51.5132C86.1198 52.0025 86.2837 52.5134 86.4514 53.046C86.6191 53.5785 86.7808 54.0846 86.9365 54.5641C87.0976 55.0295 87.2353 55.4295 87.3496 55.7639C87.4596 56.0886 87.5341 56.2948 87.5733 56.3825C87.8168 56.9279 87.7779 57.2724 87.4565 57.4159ZM96.1919 54.1053C96.0276 54.1515 95.8702 54.1237 95.7197 54.0219C95.5693 53.9202 95.4608 53.7512 95.3945 53.5151C95.3454 53.3405 95.3005 53.0429 95.2598 52.6222C95.2265 52.1883 95.1796 51.6863 95.119 51.1161C95.0687 50.543 94.9973 49.9537 94.9046 49.3481C94.8091 48.7324 94.6849 48.1523 94.5319 47.6081C94.4568 47.3411 94.4688 47.1272 94.5676 46.9665C94.6739 46.7926 94.8143 46.6811 94.9888 46.632C95.1531 46.5859 95.3052 46.6539 95.4451 46.8362C95.585 47.0185 95.7158 47.4249 95.8377 48.0555C96.0156 46.8753 96.2975 45.8875 96.6833 45.0921C97.0765 44.2835 97.5166 43.6612 98.0034 43.2252C98.4874 42.7789 98.9553 42.4923 99.4071 42.3653C99.7049 42.2816 99.9379 42.2826 100.106 42.3683C100.282 42.4409 100.389 42.549 100.43 42.6928C100.485 42.8879 100.446 43.065 100.313 43.2241C100.188 43.3701 99.9507 43.5698 99.6008 43.8233C99.1981 44.1248 98.8399 44.4471 98.5264 44.7901C98.2202 45.1199 97.9496 45.5173 97.7147 45.9822C97.49 46.4442 97.2993 47.0075 97.1426 47.672C96.983 48.3263 96.8609 49.1141 96.7764 50.0353C96.6919 50.9565 96.6344 52.053 96.6041 53.3246C96.6059 53.5679 96.5685 53.7501 96.4918 53.8714C96.4254 53.9898 96.3254 54.0678 96.1919 54.1053ZM108.249 43.9248C108.3 44.4236 108.208 44.9475 107.974 45.4965C107.739 46.0348 107.327 46.5749 106.738 47.1168C106.159 47.6469 105.379 48.1492 104.398 48.6235C104.518 49.3833 104.769 49.9047 105.151 50.1877C105.533 50.4708 106.133 50.571 106.95 50.4885C107.587 50.4242 108.191 50.2507 108.763 49.9678C109.345 49.6839 109.872 49.3252 110.343 48.8917C110.217 48.6042 110.11 48.288 110.022 47.9431C109.934 47.5982 109.87 47.2295 109.83 46.8368C109.744 45.9878 109.783 45.2549 109.946 44.6381C110.109 44.0212 110.35 43.5413 110.669 43.1982C110.998 42.854 111.349 42.6631 111.721 42.6256C112.198 42.5774 112.603 42.7081 112.934 43.0177C113.275 43.3156 113.48 43.8095 113.55 44.4993C113.628 45.274 113.508 46.0527 113.191 46.8352C112.873 47.6177 112.432 48.3431 111.867 49.0112C112.091 49.3209 112.338 49.5425 112.609 49.676C112.891 49.8084 113.185 49.8591 113.493 49.828C113.864 49.7905 114.258 49.649 114.672 49.4034C115.098 49.1567 115.527 48.8454 115.961 48.4692C116.395 48.0931 116.81 47.692 117.206 47.266C117.602 46.8294 117.951 46.4083 118.253 46.0025C118.327 45.8878 118.405 45.8103 118.487 45.7699C118.567 45.7189 118.645 45.6896 118.719 45.6821C118.942 45.6596 119.066 45.7704 119.09 46.0145C119.108 46.1949 119.039 46.4056 118.881 46.6467C118.571 47.0854 118.195 47.5575 117.753 48.0631C117.322 48.5677 116.856 49.0489 116.355 49.5069C115.865 49.9637 115.368 50.3463 114.863 50.6546C114.369 50.9618 113.899 51.1379 113.453 51.1829C112.986 51.23 112.533 51.1471 112.093 50.9342C111.664 50.7202 111.282 50.3889 110.947 49.9403C110.357 50.4609 109.709 50.8908 109.003 51.2301C108.298 51.5693 107.589 51.7748 106.878 51.8466C105.711 51.9645 104.819 51.7329 104.203 51.1518C103.587 50.5708 103.224 49.7337 103.113 48.6406C103.027 47.7916 103.065 46.9998 103.227 46.2651C103.398 45.5188 103.648 44.8611 103.977 44.2919C104.304 43.7121 104.681 43.2505 105.107 42.9073C105.534 42.5641 105.964 42.3705 106.4 42.3266C106.962 42.2698 107.398 42.3973 107.709 42.709C108.019 43.0208 108.199 43.426 108.249 43.9248ZM104.335 47.5202C104.839 47.2013 105.305 46.8273 105.733 46.3981C106.171 45.9572 106.512 45.5154 106.757 45.0725C107.013 44.6286 107.123 44.2369 107.089 43.8973C107.074 43.7487 107.031 43.6405 106.96 43.5726C106.887 43.4941 106.766 43.4635 106.596 43.4806C106.342 43.5063 106.088 43.6499 105.836 43.9112C105.582 44.1619 105.347 44.4859 105.13 44.883C104.912 45.2696 104.73 45.6954 104.583 46.1604C104.448 46.6243 104.365 47.0776 104.335 47.5202ZM111.312 47.8129C111.697 47.2808 111.989 46.7207 112.187 46.1325C112.385 45.5443 112.456 44.9743 112.4 44.4224C112.353 43.9554 112.213 43.7337 111.98 43.7573C111.651 43.7905 111.393 44.0577 111.208 44.5589C111.032 45.0483 110.982 45.6645 111.057 46.4074C111.11 46.9274 111.194 47.3959 111.312 47.8129ZM125.001 43.4337C125.354 42.771 125.692 42.0855 126.017 41.3773C126.353 40.67 126.664 39.9443 126.949 39.2002C127.033 38.9939 127.145 38.8332 127.285 38.7179C127.436 38.5931 127.602 38.5394 127.782 38.5566C127.91 38.5688 128.011 38.6268 128.087 38.7305C128.174 38.8352 128.209 38.9672 128.194 39.1265C128.175 39.3282 128.061 39.671 127.854 40.1548C127.658 40.6396 127.406 41.2531 127.099 41.9952C126.803 42.7384 126.491 43.5978 126.161 44.5735C125.844 45.5397 125.548 46.615 125.274 47.7996C125.01 48.9852 124.813 50.2576 124.683 51.6167C124.655 51.914 124.568 52.1521 124.422 52.3311C124.275 52.5206 124.112 52.6067 123.931 52.5894C123.825 52.5793 123.727 52.5431 123.636 52.4808C123.546 52.4186 123.473 52.283 123.418 52.0742C123.373 51.877 123.348 51.5693 123.346 51.1511C123.344 50.7223 123.377 50.1469 123.447 49.4248C123.499 48.8727 123.589 48.2758 123.715 47.6342C123.142 48.4688 122.537 49.1877 121.901 49.7912C121.276 50.385 120.681 50.8317 120.117 51.1312C119.563 51.4318 119.1 51.5643 118.729 51.5287C118.272 51.485 117.915 51.2954 117.658 50.9601C117.41 50.6363 117.315 50.1771 117.372 49.5825C117.422 49.0622 117.595 48.5377 117.892 48.009C118.189 47.4802 118.565 46.9697 119.019 46.4774C119.475 45.9745 119.97 45.5076 120.504 45.0765C121.038 44.6455 121.566 44.2728 122.089 43.9586C122.624 43.6347 123.113 43.3923 123.557 43.2312C124.003 43.0595 124.358 42.9864 124.623 43.0118C124.729 43.022 124.821 43.0683 124.899 43.1507C124.977 43.2332 125.011 43.3275 125.001 43.4337ZM124.746 43.9076C124.665 43.9748 124.568 44.0405 124.454 44.1047C124.341 44.1688 124.217 44.2373 124.081 44.31C123.582 44.5945 123.031 44.9274 122.426 45.3088C121.833 45.6807 121.258 46.0971 120.699 46.5579C120.153 47.0092 119.693 47.4956 119.322 48.0173C118.951 48.5389 118.737 49.0917 118.681 49.6757C118.657 49.9306 118.772 50.0702 119.027 50.0946C119.377 50.1281 119.775 50.0002 120.221 49.7106C120.678 49.4115 121.158 48.986 121.661 48.4341C122.165 47.8716 122.678 47.2082 123.202 46.4439C123.726 45.669 124.241 44.8236 124.746 43.9076ZM130.139 52.6192C129.527 52.4726 129.101 52.1237 128.86 51.5725C128.619 51.0212 128.588 50.3721 128.767 49.6252C128.831 49.3555 128.936 49.079 129.081 48.7955C129.238 48.5042 129.409 48.2489 129.593 48.0298C129.538 47.9398 129.504 47.8276 129.493 47.6932C129.483 47.5484 129.502 47.3774 129.55 47.1803C129.696 46.5683 129.934 46.033 130.263 45.5744C130.592 45.1157 130.973 44.7407 131.405 44.4492C131.839 44.1474 132.288 43.9424 132.753 43.8343C133.228 43.7287 133.683 43.728 134.119 43.8323C134.835 44.0037 135.354 44.4022 135.675 45.0276C136 45.6428 136.036 46.4742 135.786 47.5219C135.654 48.0717 135.437 48.612 135.134 49.1428C134.842 49.676 134.493 50.1737 134.086 50.6356C133.689 51.1001 133.26 51.4963 132.798 51.8243C132.345 52.1548 131.887 52.3961 131.423 52.5482C130.972 52.6924 130.544 52.716 130.139 52.6192ZM130.747 47.7467C130.789 47.8445 130.794 47.9609 130.762 48.0958C130.725 48.2514 130.656 48.3995 130.557 48.5402C130.468 48.6834 130.36 48.8824 130.233 49.1372C130.106 49.392 129.983 49.7684 129.864 50.2663C129.744 50.7642 129.882 51.0604 130.276 51.1548C130.712 51.2591 131.157 51.1848 131.613 50.9319C132.071 50.6686 132.511 50.2969 132.933 49.8166C133.355 49.3364 133.718 48.8037 134.023 48.2186C134.34 47.6255 134.566 47.0489 134.7 46.4888C134.787 46.1257 134.781 45.8554 134.681 45.6779C134.583 45.49 134.358 45.3538 134.005 45.2693C133.642 45.1824 133.234 45.2162 132.78 45.3708C132.339 45.5175 131.939 45.7672 131.58 46.1201C131.222 46.4729 130.98 46.9087 130.856 47.4273C130.829 47.5414 130.792 47.6479 130.747 47.7467ZM147.656 58.8265C147.576 58.9777 147.456 59.0758 147.296 59.1206C147.135 59.1654 146.977 59.1528 146.822 59.0828C146.646 59.004 146.527 58.8801 146.462 58.7108C146.398 58.5416 146.421 58.3354 146.53 58.0922C146.814 57.4598 147.152 56.7871 147.543 56.0739C147.938 55.3511 148.343 54.6445 148.759 53.9543C149.179 53.2543 149.573 52.6127 149.94 52.0294C149.414 52.3423 148.836 52.6907 148.207 53.0746C147.588 53.4629 146.962 53.842 146.328 54.2118C145.694 54.5816 145.089 54.9121 144.514 55.2031C143.943 55.4844 143.443 55.6983 143.015 55.8448C142.59 55.9816 142.281 56.0062 142.087 55.9187C141.727 55.7569 141.479 55.4759 141.343 55.0756C141.212 54.6657 141.244 54.2418 141.441 53.804C141.52 53.6289 141.646 53.3993 141.821 53.1152C142 52.8214 142.19 52.5152 142.392 52.1966C142.594 51.8779 142.78 51.5814 142.95 51.3071C143.124 51.023 143.244 50.808 143.31 50.6621C143.371 50.5259 143.409 50.4026 143.424 50.2921C143.452 50.1764 143.428 50.101 143.35 50.066C143.233 50.0135 143.014 50.0727 142.691 50.2435C142.373 50.4046 141.998 50.6277 141.566 50.9128C141.143 51.2023 140.7 51.5118 140.236 51.8412C139.782 52.175 139.353 52.491 138.95 52.7892C138.551 53.0778 138.224 53.2989 137.968 53.4527C137.745 53.6099 137.558 53.713 137.407 53.7622C137.257 53.8113 137.103 53.8009 136.948 53.731C136.763 53.6478 136.636 53.474 136.568 53.2094C136.51 52.9493 136.544 52.6781 136.671 52.396C136.745 52.2306 136.89 51.9859 137.106 51.6619C137.326 51.3282 137.577 50.967 137.857 50.5783C138.146 50.194 138.427 49.8173 138.698 49.448C138.984 49.0735 139.226 48.7555 139.425 48.4943C139.652 48.1985 139.85 48.0185 140.019 47.9543C140.188 47.89 140.341 47.8885 140.477 47.9498C140.662 48.0329 140.777 48.1666 140.823 48.3509C140.883 48.5299 140.852 48.7555 140.729 49.0279C140.707 49.0766 140.619 49.1948 140.464 49.3826C140.314 49.5606 140.127 49.7808 139.904 50.043C139.695 50.2998 139.47 50.5669 139.228 50.8442C138.996 51.1259 138.79 51.3898 138.609 51.6359C138.985 51.3722 139.384 51.0837 139.805 50.7704C140.237 50.4614 140.666 50.1573 141.093 49.858C141.524 49.5491 141.938 49.279 142.334 49.0479C142.735 48.807 143.098 48.6369 143.423 48.5376C143.748 48.4383 144.018 48.4368 144.232 48.533C144.485 48.6467 144.684 48.8295 144.828 49.0814C144.981 49.3377 145.067 49.6278 145.085 49.9517C145.103 50.2756 145.04 50.5981 144.896 50.9191C144.795 51.1429 144.614 51.4415 144.353 51.8151C144.096 52.179 143.818 52.5748 143.521 53.0024C143.233 53.4343 142.985 53.8551 142.778 54.2647C142.734 54.362 142.741 54.4237 142.8 54.45C142.848 54.4718 142.922 54.464 143.021 54.4266C143.443 54.2421 143.923 54.0075 144.46 53.7229C145.002 53.4284 145.559 53.1119 146.132 52.7732C146.715 52.4389 147.289 52.1122 147.854 51.7929C148.423 51.464 148.945 51.1727 149.422 50.9192C149.913 50.6603 150.327 50.4666 150.666 50.3381C151.014 50.214 151.256 50.1825 151.392 50.2438C151.684 50.375 151.871 50.5583 151.952 50.7937C152.033 51.0291 151.986 51.3413 151.812 51.7305C151.672 52.0418 151.466 52.4346 151.194 52.9088C150.932 53.3875 150.636 53.9034 150.305 54.4565C149.984 55.0139 149.652 55.5719 149.307 56.1303C148.976 56.6834 148.663 57.1976 148.368 57.6728C148.077 58.1384 147.839 58.5229 147.656 58.8265ZM158.218 66.8392C158.054 66.6868 158.004 66.4585 158.068 66.1542C158.132 65.8498 158.436 65.4045 158.98 64.818C159.481 64.2785 160.147 63.6384 160.98 62.8978C161.828 62.1565 162.795 61.3656 163.88 60.5249C164.387 60.1512 164.896 59.9246 165.406 59.8451C165.924 59.7729 166.469 59.8129 167.041 59.9651C167.62 60.1246 168.245 60.3691 168.914 60.6988C169.583 61.0286 170.253 61.3884 170.924 61.7784C171.61 62.1679 172.236 62.552 172.801 62.9309C173.381 63.3092 173.832 63.6471 174.152 63.9446C174.379 64.155 174.508 64.3615 174.538 64.5642C174.568 64.7668 174.536 64.919 174.442 65.0206C174.355 65.1145 174.251 65.1712 174.131 65.1907C174.026 65.2098 173.885 65.1735 173.708 65.082C173.577 65.019 173.312 64.8742 172.911 64.6477C172.525 64.4206 172.05 64.1402 171.487 63.8066C170.931 63.4802 170.341 63.1362 169.716 62.7746C169.098 62.4053 168.493 62.0543 167.899 61.7218C167.199 61.3631 166.611 61.1888 166.136 61.199C165.676 61.2087 165.207 61.3923 164.73 61.7498C164.613 61.8448 164.441 61.9833 164.213 62.1654C164.512 62.2825 164.873 62.4426 165.296 62.6457C165.718 62.8488 166.145 63.063 166.576 63.2884C167.007 63.5138 167.393 63.7333 167.733 63.947C168.08 64.1529 168.325 64.3212 168.465 64.4518C168.567 64.5461 168.614 64.7066 168.608 64.9333C168.609 65.1672 168.548 65.3506 168.425 65.4835C168.367 65.5461 168.289 65.5905 168.192 65.6168C168.102 65.6353 167.996 65.6166 167.873 65.5608C167.804 65.5257 167.63 65.4378 167.353 65.2972C167.092 65.156 166.768 64.987 166.383 64.7901C166.006 64.6004 165.607 64.404 165.184 64.2009C164.768 63.9901 164.372 63.7898 163.995 63.6001C163.626 63.4177 163.315 63.267 163.061 63.1482C162.674 63.4873 162.268 63.8383 161.844 64.2014C161.42 64.5645 161.018 64.9116 160.638 65.2428C160.273 65.5735 159.959 65.857 159.696 66.0932C159.44 66.3217 159.28 66.4711 159.214 66.5415C158.808 66.9793 158.476 67.0786 158.218 66.8392ZM164.695 73.574C164.588 73.4414 164.551 73.2859 164.585 73.1074C164.619 72.9289 164.731 72.7625 164.921 72.6081C165.062 72.4939 165.318 72.335 165.688 72.1311C166.073 71.9289 166.516 71.6871 167.016 71.4059C167.522 71.1329 168.035 70.8341 168.554 70.5094C169.082 70.178 169.566 69.8344 170.005 69.4786C170.221 69.304 170.422 69.2303 170.608 69.2575C170.81 69.2862 170.968 69.3711 171.082 69.512C171.19 69.6446 171.187 69.8112 171.075 70.0118C170.963 70.2124 170.642 70.4934 170.111 70.8548C171.265 70.5512 172.284 70.4192 173.167 70.4588C174.065 70.5 174.811 70.6579 175.404 70.9325C176.005 71.2003 176.454 71.5166 176.749 71.8813C176.944 72.1217 177.035 72.336 177.023 72.5244C177.026 72.7142 176.969 72.8562 176.853 72.9502C176.695 73.0778 176.517 73.1122 176.319 73.0534C176.135 72.9962 175.858 72.8571 175.487 72.6362C175.05 72.3856 174.613 72.1842 174.174 72.032C173.75 71.8813 173.278 71.79 172.758 71.7582C172.244 71.7347 171.652 71.7824 170.979 71.9015C170.315 72.0138 169.544 72.2134 168.664 72.5003C167.785 72.7872 166.755 73.1683 165.575 73.6436C165.352 73.7416 165.17 73.7793 165.028 73.7569C164.893 73.7427 164.782 73.6818 164.695 73.574ZM178.811 80.6364C178.372 80.8793 177.855 81.0014 177.258 81.0026C176.67 80.9987 176.012 80.8331 175.282 80.5058C174.566 80.1826 173.797 79.6635 172.974 78.9486C172.323 79.358 171.943 79.7942 171.834 80.2571C171.724 80.7201 171.868 81.3108 172.266 82.0293C172.576 82.5892 172.974 83.0762 173.459 83.4902C173.95 83.9136 174.487 84.2562 175.071 84.5181C175.286 84.2894 175.534 84.0665 175.816 83.8493C176.099 83.6321 176.412 83.4279 176.758 83.2367C177.504 82.8233 178.193 82.5699 178.824 82.4764C179.455 82.383 179.991 82.4153 180.432 82.5734C180.879 82.7408 181.192 82.9878 181.373 83.3144C181.605 83.7343 181.645 84.1576 181.491 84.5842C181.351 85.015 180.979 85.3984 180.372 85.7343C179.691 86.1115 178.928 86.3084 178.084 86.3248C177.239 86.3413 176.399 86.2216 175.562 85.9656C175.366 86.2937 175.26 86.6085 175.244 86.91C175.233 87.2208 175.302 87.5115 175.452 87.7821C175.633 88.1087 175.918 88.4142 176.307 88.6986C176.702 88.9923 177.157 89.2644 177.674 89.5148C178.19 89.7652 178.723 89.9886 179.27 90.1852C179.827 90.3766 180.352 90.5311 180.844 90.6488C180.979 90.6718 181.081 90.7129 181.15 90.772C181.229 90.826 181.286 90.8857 181.322 90.951C181.431 91.1469 181.378 91.3043 181.163 91.4232C181.004 91.5111 180.783 91.5299 180.499 91.4798C179.974 91.3682 179.392 91.2089 178.753 91.0019C178.12 90.8042 177.494 90.5656 176.875 90.2861C176.262 90.0159 175.715 89.7095 175.232 89.3669C174.755 89.0337 174.408 88.6712 174.191 88.2793C173.964 87.8687 173.861 87.4194 173.884 86.9315C173.911 86.4529 174.065 85.9713 174.346 85.4868C173.634 85.1491 172.984 84.723 172.394 84.2083C171.804 83.6936 171.336 83.1237 170.99 82.4985C170.421 81.4721 170.283 80.5612 170.574 79.7659C170.865 78.9706 171.491 78.3068 172.452 77.7746C173.199 77.3612 173.942 77.084 174.68 76.9431C175.434 76.8063 176.137 76.7767 176.789 76.8542C177.451 76.9266 178.024 77.0911 178.508 77.3476C178.991 77.6042 179.339 77.9237 179.551 78.3063C179.824 78.8009 179.879 79.2522 179.715 79.6601C179.551 80.0681 179.249 80.3935 178.811 80.6364ZM173.964 78.4557C174.455 78.7931 174.983 79.0741 175.546 79.2986C176.124 79.5273 176.664 79.6669 177.168 79.7173C177.676 79.777 178.08 79.7242 178.379 79.5589C178.509 79.4865 178.592 79.4043 178.626 79.3121C178.67 79.2148 178.65 79.0915 178.568 78.9422C178.444 78.7182 178.212 78.5418 177.872 78.4128C177.542 78.2787 177.151 78.1902 176.701 78.1471C176.259 78.0988 175.796 78.0992 175.311 78.1483C174.832 78.2067 174.382 78.3092 173.964 78.4557ZM176.444 84.983C177.085 85.1279 177.715 85.1754 178.334 85.1254C178.952 85.0755 179.504 84.9162 179.99 84.6475C180.4 84.4201 180.549 84.2038 180.435 83.9985C180.275 83.7092 179.928 83.5782 179.394 83.6055C178.875 83.6369 178.289 83.8334 177.636 84.1952C177.179 84.4484 176.781 84.711 176.444 84.983ZM185.846 95.8801C186.594 95.9462 187.358 95.9905 188.137 96.0132C188.919 96.0461 189.708 96.0487 190.505 96.0211C190.727 96.018 190.919 96.0582 191.08 96.1417C191.254 96.2322 191.368 96.364 191.422 96.5369C191.461 96.659 191.447 96.7751 191.381 96.8854C191.319 97.0058 191.211 97.0901 191.059 97.1383C190.865 97.1992 190.505 97.2289 189.979 97.2271C189.456 97.2355 188.793 97.2434 187.99 97.2507C187.19 97.2681 186.277 97.3158 185.25 97.3936C184.237 97.4785 183.131 97.6259 181.934 97.836C180.739 98.0563 179.491 98.3718 178.189 98.7826C177.904 98.8724 177.651 98.8852 177.429 98.8209C177.197 98.7598 177.054 98.6428 177 98.4699C176.968 98.3681 176.963 98.2635 176.985 98.1559C177.007 98.0483 177.103 97.9284 177.274 97.7962C177.438 97.6774 177.711 97.5351 178.095 97.3692C178.489 97.2002 179.032 97.0065 179.724 96.7883C180.253 96.6214 180.837 96.4706 181.477 96.3359C180.485 96.1343 179.587 95.8583 178.783 95.508C177.993 95.1646 177.349 94.7916 176.853 94.3889C176.36 93.9963 176.057 93.6221 175.945 93.266C175.807 92.8286 175.842 92.426 176.051 92.0583C176.252 91.704 176.638 91.4369 177.207 91.2572C177.706 91.1 178.256 91.0549 178.859 91.122C179.462 91.189 180.079 91.3356 180.709 91.5617C181.35 91.7846 181.973 92.0578 182.578 92.3813C183.184 92.7048 183.733 93.046 184.227 93.4048C184.734 93.7706 185.148 94.1264 185.469 94.4723C185.801 94.815 186.007 95.1136 186.088 95.3679C186.12 95.4696 186.113 95.5724 186.067 95.6762C186.022 95.7801 185.948 95.848 185.846 95.8801ZM185.311 95.831C185.217 95.7823 185.119 95.7183 185.015 95.639C184.912 95.5597 184.801 95.4719 184.681 95.3755C184.224 95.0274 183.702 94.6496 183.115 94.242C182.541 93.8414 181.933 93.474 181.291 93.1398C180.662 92.8125 180.035 92.5798 179.41 92.4415C178.784 92.3032 178.192 92.3223 177.633 92.4988C177.388 92.5758 177.305 92.7364 177.382 92.9805C177.488 93.3162 177.761 93.6327 178.201 93.9299C178.655 94.2341 179.235 94.51 179.939 94.7575C180.654 95.0018 181.465 95.2156 182.373 95.399C183.291 95.5791 184.27 95.7231 185.311 95.831ZM179.398 104.198C179.293 103.577 179.448 103.048 179.861 102.611C180.274 102.174 180.86 101.892 181.617 101.764C181.891 101.719 182.186 101.707 182.504 101.729C182.833 101.76 183.135 101.818 183.409 101.902C183.47 101.816 183.56 101.741 183.679 101.678C183.809 101.613 183.974 101.563 184.174 101.53C184.794 101.426 185.38 101.435 185.931 101.559C186.481 101.683 186.975 101.887 187.412 102.17C187.86 102.452 188.224 102.785 188.505 103.171C188.788 103.567 188.967 103.986 189.041 104.428C189.163 105.153 188.999 105.787 188.549 106.327C188.109 106.866 187.358 107.225 186.296 107.403C185.738 107.497 185.156 107.508 184.549 107.437C183.944 107.377 183.35 107.249 182.765 107.055C182.183 106.872 181.65 106.632 181.168 106.334C180.687 106.047 180.286 105.72 179.965 105.352C179.655 104.993 179.466 104.608 179.398 104.198ZM184.12 102.853C184.046 102.93 183.941 102.98 183.805 103.003C183.647 103.03 183.484 103.025 183.315 102.988C183.149 102.962 182.923 102.94 182.639 102.923C182.355 102.906 181.961 102.94 181.456 103.025C180.951 103.109 180.732 103.352 180.799 103.751C180.873 104.193 181.116 104.574 181.526 104.895C181.948 105.213 182.462 105.473 183.069 105.674C183.676 105.875 184.308 106.001 184.966 106.053C185.636 106.114 186.255 106.096 186.823 106.001C187.191 105.939 187.437 105.827 187.561 105.666C187.696 105.502 187.734 105.242 187.674 104.884C187.612 104.516 187.421 104.153 187.101 103.796C186.794 103.448 186.408 103.177 185.943 102.985C185.478 102.792 184.983 102.74 184.457 102.829C184.341 102.848 184.229 102.856 184.12 102.853ZM180.57 122.747C180.4 122.733 180.263 122.662 180.158 122.532C180.054 122.402 180.003 122.252 180.006 122.081C180.01 121.889 180.077 121.73 180.207 121.604C180.337 121.479 180.536 121.418 180.802 121.423C181.496 121.436 182.247 121.481 183.056 121.56C183.876 121.639 184.685 121.734 185.484 121.844C186.292 121.955 187.037 122.064 187.718 122.172C187.223 121.811 186.675 121.417 186.075 120.991C185.475 120.574 184.879 120.147 184.29 119.71C183.7 119.273 183.159 118.847 182.665 118.432C182.182 118.018 181.788 117.643 181.485 117.307C181.192 116.971 181.048 116.696 181.052 116.483C181.059 116.088 181.22 115.75 181.534 115.467C181.859 115.185 182.262 115.049 182.742 115.057C182.934 115.061 183.195 115.087 183.525 115.135C183.865 115.184 184.221 115.239 184.594 115.299C184.966 115.359 185.312 115.413 185.631 115.462C185.961 115.51 186.206 115.536 186.366 115.539C186.515 115.542 186.643 115.528 186.751 115.498C186.868 115.479 186.928 115.426 186.929 115.341C186.932 115.213 186.791 115.034 186.507 114.805C186.234 114.576 185.881 114.319 185.449 114.034C185.016 113.76 184.557 113.474 184.072 113.177C183.586 112.891 183.127 112.621 182.694 112.368C182.272 112.115 181.94 111.901 181.698 111.726C181.466 111.583 181.297 111.452 181.193 111.333C181.088 111.213 181.038 111.068 181.041 110.898C181.044 110.695 181.154 110.51 181.371 110.344C181.587 110.188 181.85 110.112 182.159 110.118C182.34 110.121 182.622 110.158 183.005 110.229C183.399 110.3 183.829 110.388 184.297 110.493C184.764 110.608 185.221 110.717 185.667 110.821C186.124 110.936 186.511 111.034 186.83 111.115C187.191 111.206 187.434 111.318 187.56 111.448C187.686 111.578 187.747 111.718 187.744 111.867C187.741 112.07 187.663 112.228 187.512 112.343C187.371 112.469 187.151 112.529 186.852 112.523C186.799 112.522 186.656 112.488 186.422 112.419C186.199 112.351 185.923 112.266 185.595 112.164C185.276 112.073 184.942 111.971 184.592 111.858C184.242 111.756 183.918 111.67 183.62 111.601C184.011 111.842 184.433 112.095 184.887 112.36C185.341 112.635 185.789 112.909 186.232 113.184C186.686 113.459 187.097 113.733 187.466 114.007C187.845 114.28 188.144 114.547 188.363 114.807C188.583 115.067 188.69 115.314 188.686 115.549C188.681 115.826 188.591 116.081 188.416 116.312C188.241 116.554 188.008 116.747 187.717 116.892C187.427 117.036 187.106 117.105 186.754 117.098C186.508 117.094 186.162 117.045 185.716 116.951C185.28 116.858 184.807 116.759 184.297 116.654C183.787 116.559 183.303 116.497 182.844 116.467C182.738 116.465 182.684 116.496 182.683 116.56C182.682 116.614 182.718 116.678 182.791 116.754C183.127 117.07 183.531 117.419 184.004 117.801C184.488 118.183 184.999 118.571 185.536 118.964C186.072 119.369 186.599 119.768 187.114 120.161C187.641 120.555 188.114 120.921 188.535 121.259C188.966 121.608 189.307 121.913 189.558 122.174C189.809 122.445 189.934 122.655 189.931 122.805C189.925 123.124 189.83 123.368 189.646 123.536C189.461 123.703 189.156 123.783 188.729 123.775C188.388 123.769 187.946 123.734 187.403 123.671C186.86 123.618 186.269 123.549 185.63 123.463C184.992 123.387 184.348 123.301 183.699 123.204C183.06 123.118 182.464 123.032 181.911 122.948C181.368 122.863 180.922 122.796 180.57 122.747ZM176.473 133.981C176.533 133.81 176.641 133.695 176.797 133.637C176.953 133.579 177.172 133.599 177.454 133.698C177.957 133.874 178.466 134.081 178.982 134.318C179.505 134.569 179.997 134.776 180.461 134.938C181.517 135.309 182.422 135.518 183.173 135.567C183.931 135.629 184.539 135.396 184.996 134.866C185.095 134.743 185.186 134.662 185.268 134.622C185.353 134.573 185.461 134.571 185.591 134.617C185.732 134.667 185.829 134.763 185.881 134.905C185.936 135.037 185.914 135.245 185.815 135.526C185.734 135.758 185.617 136.061 185.462 136.437C185.308 136.812 185.143 137.218 184.968 137.654C185.976 138.358 186.779 139.034 187.376 139.685C187.973 140.335 188.402 140.965 188.662 141.577C188.919 142.198 189.047 142.802 189.045 143.389C189.039 143.986 188.935 144.571 188.734 145.145C188.646 145.397 188.554 145.546 188.459 145.591C188.374 145.641 188.266 145.642 188.135 145.596C187.974 145.54 187.821 145.43 187.675 145.266C187.539 145.105 187.501 144.86 187.56 144.53C187.679 143.803 187.671 143.117 187.536 142.47C187.4 141.824 187.095 141.197 186.618 140.589C186.152 139.985 185.471 139.379 184.576 138.771C184.258 139.745 184.017 140.593 183.854 141.316C183.701 142.042 183.594 142.654 183.533 143.153C183.477 143.665 183.436 144.074 183.407 144.38C183.389 144.69 183.354 144.921 183.301 145.072C183.241 145.243 183.158 145.333 183.054 145.341C182.949 145.35 182.846 145.337 182.746 145.301C182.554 145.234 182.432 144.988 182.377 144.562C182.333 144.139 182.345 143.607 182.412 142.963C182.486 142.334 182.606 141.652 182.772 140.919C182.939 140.187 183.142 139.478 183.382 138.793C183.421 138.683 183.459 138.572 183.498 138.461C183.534 138.361 183.571 138.255 183.609 138.144C183.546 138.099 183.476 138.058 183.399 138.019C182.85 137.714 182.266 137.397 181.647 137.067C181.035 136.75 180.431 136.442 179.835 136.143C179.245 135.857 178.706 135.606 178.217 135.39C177.728 135.173 177.332 135.012 177.03 134.906C176.779 134.818 176.608 134.69 176.52 134.524C176.421 134.353 176.406 134.173 176.473 133.981ZM184.061 137.048C184.194 136.767 184.329 136.509 184.468 136.275C184.271 136.353 184.056 136.402 183.823 136.422C183.586 136.452 183.34 136.462 183.084 136.451C183.432 136.652 183.757 136.851 184.061 137.048ZM174.911 141.732C174.982 141.576 175.104 141.474 175.279 141.424C175.454 141.374 175.653 141.4 175.876 141.501C176.042 141.576 176.298 141.734 176.646 141.973C177 142.227 177.414 142.515 177.889 142.835C178.36 143.166 178.857 143.491 179.38 143.81C179.913 144.133 180.437 144.411 180.951 144.645C181.204 144.759 181.36 144.906 181.419 145.085C181.484 145.278 181.479 145.458 181.404 145.623C181.334 145.778 181.184 145.851 180.954 145.84C180.725 145.83 180.329 145.669 179.768 145.356C180.557 146.252 181.131 147.104 181.491 147.911C181.857 148.732 182.05 149.47 182.07 150.123C182.1 150.781 182.018 151.323 181.824 151.751C181.696 152.032 181.546 152.21 181.372 152.283C181.203 152.371 181.051 152.384 180.915 152.322C180.73 152.239 180.62 152.095 180.583 151.891C180.552 151.701 180.552 151.391 180.584 150.96C180.612 150.458 180.596 149.976 180.536 149.515C180.481 149.069 180.351 148.606 180.146 148.127C179.937 147.657 179.629 147.149 179.222 146.601C178.824 146.058 178.3 145.457 177.649 144.799C176.999 144.141 176.197 143.392 175.243 142.55C175.056 142.394 174.941 142.248 174.897 142.112C174.849 141.985 174.854 141.858 174.911 141.732ZM174.923 156.994C174.512 156.706 174.176 156.294 173.914 155.758C173.66 155.228 173.521 154.563 173.496 153.764C173.473 152.979 173.603 152.06 173.886 151.008C173.233 150.601 172.674 150.45 172.21 150.554C171.746 150.659 171.278 151.047 170.806 151.719C170.438 152.243 170.175 152.814 170.015 153.431C169.849 154.057 169.776 154.69 169.796 155.33C170.095 155.423 170.405 155.549 170.723 155.708C171.042 155.866 171.363 156.059 171.686 156.286C172.384 156.776 172.914 157.284 173.274 157.811C173.634 158.338 173.84 158.834 173.89 159.3C173.935 159.774 173.85 160.164 173.636 160.47C173.36 160.863 172.997 161.083 172.546 161.131C172.097 161.195 171.589 161.027 171.022 160.629C170.385 160.181 169.874 159.582 169.49 158.829C169.105 158.077 168.845 157.269 168.709 156.405C168.328 156.372 167.999 156.414 167.721 156.532C167.436 156.658 167.205 156.848 167.028 157.101C166.813 157.407 166.663 157.797 166.578 158.271C166.486 158.754 166.441 159.283 166.442 159.857C166.443 160.431 166.475 161.007 166.538 161.586C166.61 162.171 166.7 162.71 166.81 163.204C166.848 163.335 166.856 163.445 166.833 163.533C166.819 163.627 166.79 163.705 166.747 163.766C166.618 163.949 166.454 163.971 166.253 163.83C166.104 163.725 165.991 163.535 165.912 163.258C165.782 162.737 165.671 162.144 165.577 161.478C165.478 160.822 165.418 160.155 165.399 159.477C165.374 158.807 165.41 158.181 165.506 157.597C165.597 157.022 165.771 156.551 166.029 156.185C166.298 155.801 166.658 155.512 167.106 155.319C167.549 155.134 168.049 155.062 168.607 155.102C168.6 154.314 168.698 153.543 168.903 152.787C169.107 152.032 169.415 151.361 169.826 150.777C170.5 149.816 171.258 149.293 172.101 149.207C172.943 149.121 173.814 149.393 174.713 150.024C175.412 150.515 175.986 151.061 176.436 151.664C176.889 152.281 177.223 152.901 177.439 153.521C177.663 154.148 177.766 154.735 177.747 155.282C177.728 155.829 177.593 156.282 177.341 156.639C177.017 157.102 176.635 157.349 176.196 157.38C175.757 157.411 175.333 157.282 174.923 156.994ZM174.762 151.681C174.674 152.271 174.652 152.868 174.697 153.473C174.744 154.093 174.855 154.64 175.03 155.114C175.199 155.598 175.423 155.938 175.702 156.134C175.825 156.22 175.935 156.258 176.033 156.248C176.139 156.245 176.241 156.174 176.34 156.034C176.487 155.824 176.544 155.539 176.511 155.177C176.487 154.821 176.396 154.431 176.237 154.007C176.088 153.589 175.885 153.173 175.628 152.759C175.366 152.353 175.077 151.994 174.762 151.681ZM169.979 156.768C170.129 157.408 170.362 157.995 170.677 158.53C170.993 159.064 171.378 159.491 171.832 159.809C172.216 160.079 172.475 160.118 172.61 159.926C172.8 159.655 172.766 159.286 172.508 158.818C172.253 158.365 171.82 157.924 171.208 157.495C170.781 157.195 170.371 156.952 169.979 156.768ZM164.342 169.99C164.613 170.691 164.91 171.395 165.234 172.104C165.549 172.82 165.896 173.53 166.272 174.232C166.373 174.431 166.422 174.62 166.418 174.801C166.413 174.997 166.345 175.158 166.214 175.283C166.122 175.372 166.012 175.411 165.884 175.4C165.748 175.397 165.625 175.338 165.514 175.222C165.374 175.076 165.189 174.766 164.958 174.293C164.719 173.828 164.42 173.236 164.059 172.519C163.69 171.809 163.244 171.01 162.721 170.123C162.197 169.252 161.577 168.325 160.86 167.343C160.135 166.368 159.301 165.388 158.357 164.401C158.151 164.185 158.028 163.963 157.987 163.736C157.94 163.501 157.982 163.321 158.113 163.196C158.19 163.122 158.282 163.071 158.388 163.043C158.494 163.016 158.644 163.049 158.838 163.144C159.017 163.239 159.266 163.422 159.584 163.693C159.91 163.972 160.323 164.373 160.824 164.898C161.208 165.299 161.601 165.756 162.004 166.271C161.747 165.292 161.598 164.364 161.558 163.488C161.517 162.627 161.568 161.885 161.71 161.262C161.844 160.647 162.047 160.21 162.317 159.952C162.648 159.635 163.025 159.489 163.447 159.514C163.854 159.538 164.263 159.766 164.676 160.198C165.037 160.576 165.321 161.05 165.527 161.62C165.733 162.191 165.873 162.809 165.949 163.474C166.032 164.148 166.062 164.827 166.039 165.513C166.016 166.199 165.952 166.843 165.848 167.444C165.744 168.06 165.607 168.589 165.439 169.031C165.278 169.48 165.101 169.796 164.908 169.98C164.831 170.054 164.736 170.094 164.623 170.099C164.509 170.103 164.416 170.067 164.342 169.99ZM164.15 169.488C164.152 169.382 164.166 169.266 164.192 169.138C164.217 169.011 164.247 168.872 164.28 168.721C164.391 168.158 164.5 167.523 164.606 166.816C164.712 166.125 164.773 165.417 164.79 164.693C164.806 163.984 164.738 163.319 164.586 162.697C164.434 162.075 164.155 161.551 163.75 161.127C163.573 160.942 163.392 160.938 163.207 161.115C162.953 161.358 162.789 161.743 162.717 162.27C162.644 162.811 162.653 163.453 162.741 164.194C162.838 164.943 163.004 165.765 163.24 166.661C163.484 167.564 163.787 168.507 164.15 169.488ZM154.029 167.872C154.54 167.506 155.083 167.412 155.658 167.59C156.232 167.769 156.743 168.17 157.191 168.794C157.353 169.02 157.493 169.28 157.613 169.575C157.73 169.884 157.811 170.18 157.857 170.463C157.961 170.48 158.068 170.528 158.177 170.608C158.292 170.695 158.409 170.822 158.527 170.986C158.894 171.498 159.143 172.028 159.274 172.577C159.406 173.126 159.44 173.659 159.378 174.176C159.322 174.702 159.183 175.176 158.961 175.598C158.73 176.026 158.432 176.371 158.068 176.632C157.47 177.061 156.829 177.193 156.146 177.027C155.468 176.869 154.816 176.353 154.188 175.478C153.858 175.018 153.592 174.5 153.389 173.924C153.177 173.354 153.029 172.764 152.946 172.154C152.854 171.551 152.836 170.967 152.89 170.402C152.936 169.844 153.054 169.34 153.243 168.89C153.429 168.454 153.691 168.115 154.029 167.872ZM157.316 171.521C157.214 171.489 157.123 171.416 157.042 171.304C156.949 171.174 156.881 171.025 156.84 170.858C156.79 170.697 156.71 170.485 156.601 170.222C156.491 169.959 156.287 169.62 155.989 169.204C155.69 168.788 155.376 168.698 155.047 168.934C154.683 169.195 154.447 169.581 154.341 170.091C154.24 170.609 154.233 171.185 154.32 171.819C154.407 172.452 154.572 173.076 154.815 173.689C155.055 174.317 155.343 174.865 155.679 175.333C155.897 175.637 156.105 175.808 156.305 175.849C156.511 175.898 156.761 175.817 157.056 175.606C157.359 175.388 157.601 175.057 157.781 174.613C157.959 174.183 158.032 173.718 158 173.216C157.968 172.713 157.796 172.246 157.486 171.812C157.417 171.717 157.361 171.62 157.316 171.521ZM137.873 177.059C137.811 176.899 137.815 176.744 137.887 176.594C137.958 176.443 138.071 176.332 138.225 176.26C138.4 176.179 138.572 176.169 138.742 176.232C138.912 176.294 139.053 176.446 139.165 176.687C139.457 177.316 139.745 178.012 140.029 178.774C140.317 179.546 140.586 180.314 140.837 181.08C141.091 181.856 141.319 182.573 141.52 183.233C141.627 182.63 141.742 181.965 141.863 181.238C141.974 180.516 142.097 179.794 142.232 179.073C142.368 178.351 142.513 177.678 142.67 177.052C142.83 176.437 142.995 175.919 143.165 175.499C143.339 175.089 143.523 174.839 143.716 174.749C144.074 174.582 144.449 174.579 144.84 174.738C145.236 174.907 145.535 175.209 145.738 175.644C145.819 175.818 145.91 176.064 146.01 176.382C146.115 176.709 146.222 177.054 146.331 177.415C146.44 177.776 146.543 178.11 146.639 178.419C146.74 178.736 146.824 178.968 146.891 179.113C146.954 179.248 147.023 179.358 147.097 179.441C147.166 179.538 147.239 179.569 147.316 179.533C147.432 179.479 147.531 179.274 147.613 178.919C147.699 178.573 147.776 178.143 147.843 177.63C147.9 177.121 147.956 176.583 148.011 176.017C148.055 175.455 148.097 174.924 148.135 174.424C148.178 173.934 148.225 173.541 148.276 173.247C148.303 172.976 148.347 172.767 148.408 172.621C148.47 172.474 148.578 172.365 148.733 172.293C148.916 172.208 149.131 172.226 149.375 172.348C149.61 172.474 149.793 172.677 149.923 172.957C150 173.122 150.09 173.392 150.194 173.767C150.302 174.152 150.412 174.577 150.522 175.043C150.623 175.514 150.725 175.973 150.827 176.419C150.923 176.88 151.005 177.271 151.072 177.593C151.148 177.958 151.154 178.225 151.092 178.395C151.03 178.565 150.931 178.682 150.796 178.745C150.612 178.83 150.436 178.83 150.266 178.744C150.092 178.672 149.942 178.501 149.816 178.23C149.793 178.182 149.762 178.038 149.721 177.798C149.684 177.568 149.64 177.283 149.588 176.942C149.53 176.616 149.476 176.271 149.424 175.907C149.363 175.547 149.298 175.218 149.23 174.921C149.184 175.377 149.141 175.868 149.102 176.391C149.054 176.92 149.003 177.443 148.95 177.962C148.902 178.49 148.835 178.98 148.751 179.431C148.671 179.891 148.562 180.277 148.424 180.588C148.286 180.899 148.111 181.104 147.898 181.203C147.647 181.32 147.379 181.351 147.094 181.295C146.8 181.243 146.524 181.119 146.267 180.92C146.01 180.722 145.808 180.464 145.659 180.144C145.556 179.922 145.449 179.589 145.337 179.147C145.23 178.715 145.112 178.246 144.984 177.741C144.845 177.241 144.689 176.778 144.515 176.354C144.47 176.257 144.418 176.222 144.36 176.249C144.312 176.271 144.27 176.332 144.234 176.431C144.097 176.871 143.96 177.388 143.824 177.98C143.692 178.582 143.567 179.211 143.448 179.866C143.32 180.526 143.191 181.174 143.063 181.81C142.94 182.455 142.818 183.041 142.698 183.567C142.573 184.108 142.448 184.548 142.324 184.888C142.19 185.233 142.055 185.436 141.92 185.499C141.63 185.634 141.369 185.655 141.138 185.563C140.907 185.47 140.701 185.231 140.521 184.844C140.378 184.534 140.215 184.122 140.034 183.606C139.844 183.094 139.647 182.533 139.445 181.921C139.234 181.314 139.029 180.697 138.832 180.071C138.63 179.459 138.446 178.886 138.28 178.352C138.119 177.827 137.983 177.396 137.873 177.059Z" fill="#F2F9FF"/>
<path d="M107.953 194.44C107.623 194.44 107.383 194.355 107.233 194.184C107.084 194.024 107.009 193.848 107.009 193.656C107.009 193.443 107.047 193.272 107.121 193.144C107.207 193.016 107.367 192.92 107.601 192.856C107.847 192.792 108.204 192.755 108.673 192.744C109.26 192.446 109.852 192.078 110.449 191.64C111.057 191.192 111.639 190.696 112.193 190.152C112.748 189.608 113.244 189.038 113.681 188.44C114.119 187.843 114.465 187.24 114.721 186.632C114.977 186.024 115.105 185.432 115.105 184.856C115.105 184.312 114.935 183.891 114.593 183.592C114.263 183.283 113.772 183.128 113.121 183.128C112.503 183.128 111.953 183.208 111.473 183.368C111.004 183.518 110.62 183.667 110.321 183.816C110.033 183.966 109.831 184.04 109.713 184.04C109.425 184.04 109.281 183.848 109.281 183.464C109.281 183.326 109.383 183.144 109.585 182.92C109.799 182.696 110.087 182.472 110.449 182.248C110.812 182.014 111.233 181.822 111.713 181.672C112.193 181.512 112.705 181.432 113.249 181.432C114.167 181.432 114.913 181.726 115.489 182.312C116.065 182.888 116.353 183.763 116.353 184.936C116.353 185.779 116.177 186.579 115.825 187.336C115.484 188.094 115.031 188.808 114.465 189.48C113.9 190.142 113.281 190.76 112.609 191.336C111.937 191.902 111.276 192.408 110.625 192.856C111.468 192.846 112.161 192.819 112.705 192.776C113.249 192.723 113.692 192.67 114.033 192.616C114.375 192.552 114.663 192.504 114.897 192.472C115.132 192.43 115.367 192.408 115.601 192.408C115.868 192.408 116.06 192.483 116.177 192.632C116.305 192.771 116.369 192.942 116.369 193.144C116.369 193.315 116.327 193.47 116.241 193.608C116.167 193.736 116.007 193.843 115.761 193.928C115.516 194.024 115.143 194.094 114.641 194.136C114.14 194.19 113.468 194.216 112.625 194.216C112.049 194.216 111.452 194.211 110.833 194.2C110.225 194.19 109.633 194.174 109.057 194.152C108.524 194.344 108.156 194.44 107.953 194.44ZM121.12 194.904C121.003 194.904 120.901 194.862 120.816 194.776C120.731 194.691 120.688 194.574 120.688 194.424C120.688 194.136 120.832 193.688 121.12 193.08C121.408 192.472 121.797 191.758 122.288 190.936C122.779 190.104 123.328 189.214 123.936 188.264C124.544 187.304 125.168 186.323 125.808 185.32C126.448 184.318 127.067 183.342 127.664 182.392C127.035 182.499 126.405 182.627 125.776 182.776C125.157 182.926 124.576 183.07 124.032 183.208C123.488 183.347 123.024 183.464 122.64 183.56C122.256 183.646 121.984 183.688 121.824 183.688C121.515 183.688 121.301 183.624 121.184 183.496C121.077 183.368 121.024 183.214 121.024 183.032C121.024 182.883 121.168 182.734 121.456 182.584C121.744 182.435 122.123 182.291 122.592 182.152C123.061 182.003 123.568 181.864 124.112 181.736C124.667 181.608 125.205 181.496 125.728 181.4C126.261 181.304 126.731 181.23 127.136 181.176C127.541 181.123 127.835 181.096 128.016 181.096C128.219 181.096 128.416 181.144 128.608 181.24C128.8 181.336 128.96 181.464 129.088 181.624C129.227 181.784 129.296 181.955 129.296 182.136C129.296 182.222 129.195 182.462 128.992 182.856C128.8 183.251 128.528 183.758 128.176 184.376C127.835 184.995 127.44 185.678 126.992 186.424C126.555 187.171 126.091 187.939 125.6 188.728C125.12 189.518 124.64 190.286 124.16 191.032C123.68 191.768 123.227 192.44 122.8 193.048C122.384 193.656 122.016 194.147 121.696 194.52C121.621 194.606 121.536 194.691 121.44 194.776C121.344 194.862 121.237 194.904 121.12 194.904Z" fill="#F2F9FF"/>
</svg>
