<svg width="180" height="180" viewBox="0 0 180 180" fill="none" xmlns="http://www.w3.org/2000/svg">
<circle cx="90" cy="90" r="89" stroke="black" stroke-width="2"/>
<path d="M90.6278 72.0965C90.6284 72.0575 90.6274 72.0175 90.6228 71.9752C90.5009 70.8469 89.1621 70.5287 89.1621 70.5287C89.1621 70.5287 88.069 69.9451 86.5476 69.616C86.2564 68.1778 85.2249 64.6955 81.7692 61.7238C80.767 60.862 79.9047 60.144 79.1647 59.5457C78.7191 59.0329 77.5862 57.755 76.8964 57.211C76.8964 57.211 76.3414 56.8137 76.2327 56.9355C76.174 57.0013 76.2739 57.2186 76.4068 57.4422C75.4806 56.7953 75.1408 56.6473 75.1408 56.6473C75.1408 56.6473 75.2496 57.2085 75.886 58.3125C75.9088 58.352 75.9307 58.3898 75.9523 58.4267C75.7607 58.4272 75.5845 58.4408 75.5168 58.4827C75.3583 58.5809 76.0014 59.2901 76.373 59.6181C75.3459 60.0866 75.7495 60.0973 76.24 60.7324C76.3416 60.8638 76.4438 60.9988 76.5426 61.1309C76.4446 61.1376 76.3594 61.165 76.3719 61.2427C76.3994 61.4128 76.6673 61.5108 76.8845 61.5946C76.8869 61.598 76.8892 61.6012 76.8916 61.6045C76.8627 61.6226 76.747 61.6967 76.6486 61.7807C76.5784 61.8407 76.7912 62.0063 77.0218 62.1573C76.7814 62.1795 76.4738 62.2604 76.5514 62.5366C76.6752 62.9771 77.487 63.7324 77.7589 64.0215C78.1284 64.4146 78.5589 64.5522 79.842 65.8717C81.0671 67.1317 80.623 69.0182 80.8793 69.35C80.8793 69.35 80.8793 69.35 79.0298 69.2975C78.4209 69.2802 74.6741 68.1055 73.7377 67.9617C72.8013 67.8178 71.9404 68.4399 72.2875 68.6105C72.6346 68.781 73.3698 68.9705 73.3698 68.9705C73.0616 69.0048 72.1218 69.3956 71.79 69.6908C71.4582 69.9861 72.6025 70.5074 72.6025 70.5074C72.1653 70.6525 72.2318 71.0794 72.2318 71.0794C72.2318 71.0794 72.2318 71.0794 73.5378 70.8296C74.8437 70.5798 77.7982 71.7585 78.7445 71.9687C79.3755 72.1088 80.4514 73.1573 82.4643 73.631C82.6239 74.1318 82.8354 75.017 83.0854 75.4719C83.4063 76.0558 83.3195 76.2259 83.4872 76.9234C83.6549 77.6209 83.7392 78.2553 83.659 78.4585C83.5787 78.6617 83.2535 79.5851 83.2078 79.7508C83.162 79.9165 83.4477 79.8342 83.4477 79.8342C83.4814 80.041 83.5027 80.3756 83.5155 80.4927C83.5284 80.6098 83.8766 80.5009 83.8766 80.5009C83.879 80.6446 83.7371 80.8544 83.8957 80.9265C84.0544 80.9985 84.417 80.8035 84.417 80.8035C84.3596 80.9239 84.181 81.7004 84.2477 81.7061C84.3144 81.7117 84.3137 81.8133 84.7705 81.604C85.2274 81.3947 85.6544 81.0616 85.6544 81.0616C85.5381 81.2814 85.9478 81.2061 85.9478 81.2061C87.038 80.1756 87.0945 78.5058 87.2337 77.9476C87.3523 77.4716 87.9563 74.4378 87.2684 73.3408C87.381 73.3097 87.4888 73.2807 87.5941 73.2544C87.8795 73.1832 88.1486 73.1312 88.4592 73.1067C89.0818 73.0575 89.8452 73.0039 90.2804 72.7115C90.5845 72.7889 91.1391 72.9231 91.4041 72.9436C91.4041 72.9436 91.167 72.5304 90.9598 72.3303C90.8802 72.2535 90.7563 72.1725 90.6278 72.0965Z" fill="black"/>
<path d="M32.072 80.696V83.064H22.376V90.584H30.248V92.952H22.376V103H19.464V80.696H32.072ZM38.821 88.312C39.333 87.3093 40.0583 86.5307 40.997 85.976C41.957 85.4213 43.1197 85.144 44.485 85.144V88.152H43.717C40.453 88.152 38.821 89.9227 38.821 93.464V103H35.909V85.464H38.821V88.312ZM64.1665 93.56C64.1665 94.1147 64.1345 94.7013 64.0705 95.32H50.0545C50.1612 97.048 50.7478 98.4027 51.8145 99.384C52.9025 100.344 54.2145 100.824 55.7505 100.824C57.0092 100.824 58.0545 100.536 58.8865 99.96C59.7398 99.3627 60.3372 98.5733 60.6785 97.592H63.8145C63.3452 99.2773 62.4065 100.653 60.9985 101.72C59.5905 102.765 57.8412 103.288 55.7505 103.288C54.0865 103.288 52.5932 102.915 51.2705 102.168C49.9692 101.421 48.9452 100.365 48.1985 99C47.4518 97.6133 47.0785 96.0133 47.0785 94.2C47.0785 92.3867 47.4412 90.7973 48.1665 89.432C48.8918 88.0667 49.9052 87.0213 51.2065 86.296C52.5292 85.5493 54.0438 85.176 55.7505 85.176C57.4145 85.176 58.8865 85.5387 60.1665 86.264C61.4465 86.9893 62.4278 87.992 63.1105 89.272C63.8145 90.5307 64.1665 91.96 64.1665 93.56ZM61.1585 92.952C61.1585 91.8427 60.9132 90.8933 60.4225 90.104C59.9318 89.2933 59.2598 88.6853 58.4065 88.28C57.5745 87.8533 56.6465 87.64 55.6225 87.64C54.1505 87.64 52.8918 88.1093 51.8465 89.048C50.8225 89.9867 50.2358 91.288 50.0865 92.952H61.1585ZM84.3302 93.56C84.3302 94.1147 84.2982 94.7013 84.2342 95.32H70.2182C70.3249 97.048 70.9116 98.4027 71.9782 99.384C73.0662 100.344 74.3782 100.824 75.9142 100.824C77.1729 100.824 78.2182 100.536 79.0503 99.96C79.9036 99.3627 80.5009 98.5733 80.8422 97.592H83.9783C83.5089 99.2773 82.5702 100.653 81.1622 101.72C79.7542 102.765 78.0049 103.288 75.9142 103.288C74.2502 103.288 72.7569 102.915 71.4342 102.168C70.1329 101.421 69.1089 100.365 68.3622 99C67.6156 97.6133 67.2422 96.0133 67.2422 94.2C67.2422 92.3867 67.6049 90.7973 68.3302 89.432C69.0556 88.0667 70.0689 87.0213 71.3702 86.296C72.6929 85.5493 74.2076 85.176 75.9142 85.176C77.5782 85.176 79.0502 85.5387 80.3302 86.264C81.6102 86.9893 82.5916 87.992 83.2743 89.272C83.9782 90.5307 84.3302 91.96 84.3302 93.56ZM81.3222 92.952C81.3222 91.8427 81.0769 90.8933 80.5862 90.104C80.0956 89.2933 79.4236 88.6853 78.5702 88.28C77.7382 87.8533 76.8102 87.64 75.7862 87.64C74.3142 87.64 73.0556 88.1093 72.0102 89.048C70.9862 89.9867 70.3996 91.288 70.2502 92.952H81.3222ZM87.406 94.168C87.406 92.376 87.7687 90.808 88.494 89.464C89.2193 88.0987 90.2113 87.0427 91.47 86.296C92.75 85.5493 94.1793 85.176 95.758 85.176C97.1233 85.176 98.3927 85.496 99.566 86.136C100.739 86.7547 101.635 87.576 102.254 88.6V79.32H105.198V103H102.254V99.704C101.678 100.749 100.825 101.613 99.694 102.296C98.5633 102.957 97.2407 103.288 95.726 103.288C94.1687 103.288 92.75 102.904 91.47 102.136C90.2113 101.368 89.2193 100.291 88.494 98.904C87.7687 97.5173 87.406 95.9387 87.406 94.168ZM102.254 94.2C102.254 92.8773 101.987 91.7253 101.454 90.744C100.921 89.7627 100.195 89.016 99.278 88.504C98.382 87.9707 97.39 87.704 96.302 87.704C95.214 87.704 94.222 87.96 93.326 88.472C92.43 88.984 91.7153 89.7307 91.182 90.712C90.6487 91.6933 90.382 92.8453 90.382 94.168C90.382 95.512 90.6487 96.6853 91.182 97.688C91.7153 98.6693 92.43 99.4267 93.326 99.96C94.222 100.472 95.214 100.728 96.302 100.728C97.39 100.728 98.382 100.472 99.278 99.96C100.195 99.4267 100.921 98.6693 101.454 97.688C101.987 96.6853 102.254 95.5227 102.254 94.2ZM118.087 103.288C116.444 103.288 114.951 102.915 113.607 102.168C112.284 101.421 111.239 100.365 110.471 99C109.724 97.6133 109.351 96.0133 109.351 94.2C109.351 92.408 109.735 90.8293 110.503 89.464C111.292 88.0773 112.359 87.0213 113.703 86.296C115.047 85.5493 116.551 85.176 118.215 85.176C119.879 85.176 121.383 85.5493 122.727 86.296C124.071 87.0213 125.127 88.0667 125.895 89.432C126.684 90.7973 127.079 92.3867 127.079 94.2C127.079 96.0133 126.674 97.6133 125.863 99C125.074 100.365 123.996 101.421 122.631 102.168C121.266 102.915 119.751 103.288 118.087 103.288ZM118.087 100.728C119.132 100.728 120.114 100.483 121.031 99.992C121.948 99.5013 122.684 98.7653 123.239 97.784C123.815 96.8027 124.103 95.608 124.103 94.2C124.103 92.792 123.826 91.5973 123.271 90.616C122.716 89.6347 121.991 88.9093 121.095 88.44C120.199 87.9493 119.228 87.704 118.183 87.704C117.116 87.704 116.135 87.9493 115.239 88.44C114.364 88.9093 113.66 89.6347 113.127 90.616C112.594 91.5973 112.327 92.792 112.327 94.2C112.327 95.6293 112.583 96.8347 113.095 97.816C113.628 98.7973 114.332 99.5333 115.207 100.024C116.082 100.493 117.042 100.728 118.087 100.728ZM152.316 85.144C153.681 85.144 154.897 85.432 155.964 86.008C157.03 86.5627 157.873 87.4053 158.492 88.536C159.11 89.6667 159.42 91.0427 159.42 92.664V103H156.54V93.08C156.54 91.3307 156.102 89.9973 155.228 89.08C154.374 88.1413 153.212 87.672 151.74 87.672C150.225 87.672 149.02 88.1627 148.124 89.144C147.228 90.104 146.78 91.5013 146.78 93.336V103H143.9V93.08C143.9 91.3307 143.462 89.9973 142.588 89.08C141.734 88.1413 140.572 87.672 139.1 87.672C137.585 87.672 136.38 88.1627 135.484 89.144C134.588 90.104 134.14 91.5013 134.14 93.336V103H131.228V85.464H134.14V87.992C134.716 87.0747 135.484 86.3707 136.444 85.88C137.425 85.3893 138.502 85.144 139.676 85.144C141.148 85.144 142.449 85.4747 143.58 86.136C144.71 86.7973 145.553 87.768 146.108 89.048C146.598 87.8107 147.409 86.8507 148.54 86.168C149.67 85.4853 150.929 85.144 152.316 85.144Z" fill="black"/>
<path d="M146.599 117.985C147.431 117.266 148.085 116.676 148.562 116.217C149.047 115.749 149.45 115.264 149.771 114.761C150.092 114.258 150.252 113.756 150.252 113.253C150.252 112.733 150.126 112.326 149.875 112.031C149.632 111.736 149.247 111.589 148.718 111.589C148.207 111.589 147.808 111.754 147.522 112.083C147.245 112.404 147.097 112.837 147.08 113.383H145.65C145.676 112.395 145.971 111.641 146.534 111.121C147.106 110.592 147.83 110.328 148.705 110.328C149.65 110.328 150.386 110.588 150.915 111.108C151.452 111.628 151.721 112.321 151.721 113.188C151.721 113.812 151.561 114.414 151.24 114.995C150.928 115.567 150.551 116.083 150.109 116.542C149.676 116.993 149.121 117.517 148.445 118.115L147.86 118.635H151.981V119.87H145.663V118.791L146.599 117.985ZM159.289 111.667L155.675 120H154.18L157.833 111.823H153.023V110.562H159.289V111.667Z" fill="black"/>
</svg>
